<?xml version="1.0" encoding="UTF-8"?>
<!DOCTYPE svg PUBLIC "-//W3C//DTD SVG 1.1//EN" "http://www.w3.org/Graphics/SVG/1.1/DTD/svg11.dtd">
<!-- Creator: CorelDRAW X6 -->
<svg xmlns="http://www.w3.org/2000/svg" xml:space="preserve" width="1.6in" height="0.801in" version="1.1" shape-rendering="geometricPrecision" text-rendering="geometricPrecision" image-rendering="optimizeQuality" fill-rule="evenodd" clip-rule="evenodd"
viewBox="0 0 1600 801"
 xmlns:xlink="http://www.w3.org/1999/xlink">
 <g id="pcb">
  <metadata id="CorelCorpID_0Corel-Layer"/>
  <g id="silkscreen">
   <polygon id="board_outline" fill="none" stroke="black" stroke-width="6.94488" points="1511,0 1511,267 1579,267 1580,533 1511,533 1511,801 191,800 71,741 71,61 187,2 "/>
   <path fill="black" fill-rule="nonzero" d="M1334 662c0,1 -1,2 -1,3 0,1 -1,2 -2,3 0,0 -1,1 -2,1 -1,1 -2,1 -3,1l0 0c3,1 5,2 6,3 2,2 3,3 3,6 0,1 -1,3 -1,4 -1,1 -1,2 -2,3 -2,1 -3,2 -4,2 -2,1 -4,1 -6,1 -2,0 -3,0 -5,0 -2,-1 -3,-1 -4,-2l0 -4c1,1 3,1 4,2 2,0 3,0 5,0 1,0 3,0 4,0 1,0 2,-1 2,-1 1,-1 1,-2 2,-3 0,0 0,-1 0,-2 0,-2 0,-2 0,-3 -1,-1 -1,-2 -2,-2 -1,-1 -2,-1 -3,-1 -1,0 -2,-1 -4,-1l-3 0 0 -3 3 0c1,0 3,0 4,-1 1,0 1,0 2,-1 1,-1 1,-1 2,-2 0,-1 0,-2 0,-3 0,-1 0,-1 0,-2 -1,-1 -1,-1 -1,-2 -1,0 -2,0 -2,-1 -1,0 -2,0 -3,0 -1,0 -3,0 -4,1 -2,0 -3,1 -4,2l-2 -3c0,-1 1,-1 2,-1 1,-1 1,-1 2,-2 1,0 2,0 3,0 1,-1 2,-1 3,-1 2,0 3,1 5,1 1,0 2,1 3,2 1,1 1,1 2,3 0,1 1,2 1,3zm26 -8l5 0 -11 35 -5 0 -11 -35 4 0 7 22c1,1 1,3 1,4 1,1 1,3 1,4 1,-1 1,-3 1,-4 1,-1 1,-3 2,-4l6 -22zm28 8c0,1 0,2 -1,3 0,1 0,2 -1,3 -1,0 -2,1 -3,1 0,1 -1,1 -3,1l0 0c3,1 5,2 7,3 1,2 2,3 2,6 0,1 0,3 -1,4 0,1 -1,2 -2,3 -1,1 -2,2 -4,2 -2,1 -4,1 -6,1 -1,0 -3,0 -5,0 -1,-1 -3,-1 -4,-2l0 -4c1,1 3,1 5,2 1,0 3,0 4,0 2,0 3,0 4,0 1,0 2,-1 3,-1 0,-1 1,-2 1,-3 0,0 1,-1 1,-2 0,-2 -1,-2 -1,-3 0,-1 -1,-2 -2,-2 -1,-1 -2,-1 -3,-1 -1,0 -2,-1 -3,-1l-4 0 0 -3 4 0c1,0 2,0 3,-1 1,0 2,0 2,-1 1,-1 2,-1 2,-2 0,-1 1,-2 1,-3 0,-1 -1,-1 -1,-2 0,-1 -1,-1 -1,-2 -1,0 -1,0 -2,-1 -1,0 -2,0 -2,0 -2,0 -4,0 -5,1 -1,0 -2,1 -4,2l-2 -3c1,-1 2,-1 2,-1 1,-1 2,-1 3,-2 1,0 1,0 2,0 1,-1 2,-1 4,-1 1,0 3,1 4,1 1,0 2,1 3,2 1,1 2,1 2,3 1,1 1,2 1,3z"/>
   <path fill="black" fill-rule="nonzero" d="M1219 674l0 15 -4 0 0 -35 9 0c4,0 7,1 9,2 2,2 3,4 3,8 0,1 0,2 -1,3 0,1 -1,2 -1,3 -1,1 -2,1 -2,2 -1,0 -2,1 -3,1l9 16 -5 0 -8 -15 -6 0zm0 -4l4 0c2,0 3,0 4,0 1,0 2,-1 2,-1 1,-1 1,-1 2,-2 0,-1 0,-2 0,-3 0,-1 0,-2 0,-3 -1,-1 -1,-1 -2,-2 0,0 -1,-1 -2,-1 -1,0 -2,0 -4,0l-4 0 0 12zm43 9c0,2 0,3 -1,4 0,2 -1,3 -2,3 -1,1 -2,2 -4,2 -1,1 -3,1 -5,1 -2,0 -3,0 -5,0 -1,-1 -2,-1 -4,-2l0 -4c1,0 2,1 2,1 1,0 2,0 2,1 1,0 2,0 3,0 1,0 1,0 2,0 3,0 5,0 6,-1 1,-1 2,-3 2,-4 0,-1 -1,-2 -1,-3 0,0 0,-1 -1,-1 -1,-1 -1,-1 -2,-2 -1,0 -2,-1 -4,-1 -1,-1 -3,-2 -4,-2 -1,-1 -1,-2 -2,-3 -1,0 -1,-1 -2,-2 0,-1 0,-3 0,-4 0,-1 0,-2 1,-4 0,-1 1,-2 2,-2 1,-1 2,-2 3,-2 1,0 3,-1 4,-1 2,0 4,1 5,1 2,0 3,1 4,1l-1 4c-1,-1 -2,-1 -4,-1 -1,-1 -2,-1 -4,-1 -2,0 -3,1 -4,2 -1,0 -2,2 -2,3 0,1 0,2 1,3 0,0 0,1 1,1 0,1 1,1 2,2 1,0 2,1 3,1 2,1 3,1 4,2 1,1 2,1 3,2 1,1 1,2 1,3 1,1 1,2 1,3zm17 10l-4 0 0 -31 -10 0 0 -4 24 0 0 4 -10 0 0 31z"/>
   <path fill="black" fill-rule="nonzero" d="M1012 670l11 0 0 17c-1,1 -2,1 -2,1 -1,0 -2,0 -3,1 -1,0 -2,0 -3,0 -1,0 -2,0 -3,0 -3,0 -5,0 -7,-1 -2,-1 -4,-2 -5,-4 -1,-1 -2,-3 -3,-5 -1,-3 -1,-5 -1,-8 0,-3 1,-5 1,-7 1,-2 2,-4 4,-6 1,-1 3,-3 5,-3 2,-1 4,-2 7,-2 2,0 4,1 5,1 2,0 3,1 5,1l-2 4c-1,0 -1,0 -2,-1 -1,0 -1,0 -2,0 -1,0 -1,0 -2,-1 -1,0 -2,0 -2,0 -2,0 -4,1 -5,1 -2,1 -3,2 -4,3 -1,1 -2,3 -2,4 -1,2 -1,4 -1,6 0,2 0,4 0,6 1,2 2,3 3,4 0,1 2,2 3,3 2,1 4,1 6,1 0,0 1,0 2,0 0,0 1,0 1,0 1,0 1,0 2,0 0,0 0,0 1,-1l0 -10 -7 0 0 -4zm45 19l-5 0 -16 -29 -1 0c0,1 1,2 1,3 0,1 0,3 0,4 0,1 0,2 0,3l0 19 -5 0 0 -35 6 0 16 28 0 0c0,-1 0,-2 0,-3 0,-1 0,-1 0,-2 0,0 0,-1 0,-1 0,-1 0,-1 0,-2 0,0 0,-1 0,-1l0 -19 4 0 0 35zm35 -18c0,3 0,5 -1,8 0,2 -2,4 -3,5 -1,2 -3,3 -5,3 -2,1 -5,2 -7,2l-9 0 0 -35 10 0c2,0 4,0 6,1 2,1 4,2 5,3 1,2 3,3 3,5 1,3 1,5 1,8zm-4 0c0,-2 -1,-4 -1,-6 -1,-2 -1,-3 -2,-4 -1,-1 -3,-2 -4,-3 -1,0 -3,0 -5,0l-5 0 0 27 4 0c4,0 7,-1 10,-4 2,-2 3,-5 3,-10z"/>
   <path fill="black" fill-rule="nonzero" d="M950 671c0,3 0,5 -1,8 -1,2 -2,4 -3,5 -2,2 -3,3 -6,3 -2,1 -4,2 -7,2l-8 0 0 -35 9 0c3,0 5,0 7,1 2,1 3,2 5,3 1,2 2,3 3,5 1,3 1,5 1,8zm-5 0c0,-2 0,-4 0,-6 -1,-2 -2,-3 -3,-4 -1,-1 -2,-2 -3,-3 -2,0 -3,0 -5,0l-5 0 0 27 4 0c4,0 7,-1 9,-4 2,-2 3,-5 3,-10zm15 18l13 -31 -18 0 0 -4 23 0 0 3 -14 32 -4 0z"/>
   <path fill="black" fill-rule="nonzero" d="M850 671c0,3 0,5 -1,8 -1,2 -2,4 -3,5 -2,2 -4,3 -6,3 -2,1 -4,2 -7,2l-8 0 0 -35 9 0c3,0 5,0 7,1 2,1 3,2 5,3 1,2 2,3 3,5 1,3 1,5 1,8zm-5 0c0,-2 0,-4 0,-6 -1,-2 -2,-3 -3,-4 -1,-1 -2,-2 -3,-3 -2,0 -3,0 -5,0l-5 0 0 27 4 0c4,0 7,-1 9,-4 2,-2 3,-5 3,-10zm11 3c0,-2 0,-4 0,-5 0,-2 0,-3 1,-5 0,-1 1,-3 2,-4 0,-1 1,-3 2,-4 1,-1 3,-1 4,-2 2,0 4,-1 6,-1 0,0 1,0 1,0 0,0 1,0 1,0 0,0 1,1 1,1 0,0 1,0 1,0l0 4c-1,-1 -1,-1 -2,-1 -1,0 -1,0 -2,0 -1,0 -3,0 -4,1 -1,0 -2,0 -2,1 -1,1 -2,1 -2,2 -1,1 -1,2 -2,3 0,1 0,2 0,3 -1,1 -1,3 -1,4l0 0c1,-1 1,-1 2,-2 0,0 1,-1 1,-1 1,0 1,-1 2,-1 1,0 2,0 3,0 1,0 3,0 4,1 1,0 2,1 3,2 1,0 1,2 2,3 0,1 1,3 1,4 0,2 -1,4 -1,5 -1,2 -1,3 -2,4 -1,1 -2,2 -4,2 -1,1 -2,1 -4,1 -2,0 -3,0 -4,-1 -2,-1 -3,-1 -4,-3 -1,-1 -2,-3 -2,-4 -1,-2 -1,-5 -1,-7zm11 11c1,0 2,0 3,0 0,0 1,-1 2,-2 0,0 1,-1 1,-2 0,-1 0,-2 0,-4 0,-1 0,-2 0,-3 0,-1 -1,-1 -1,-2 -1,0 -1,-1 -2,-1 -1,-1 -2,-1 -3,-1 -1,0 -2,0 -3,1 -1,0 -1,1 -2,1 -1,1 -1,1 -1,2 -1,1 -1,2 -1,3 0,1 0,2 1,3 0,1 0,2 1,3 0,0 1,1 2,2 1,0 2,0 3,0z"/>
   <path fill="black" fill-rule="nonzero" d="M751 670c0,3 -1,6 -2,8 0,2 -1,4 -3,6 -1,1 -3,2 -5,3 -2,1 -5,1 -7,1l-9 0 0 -35 10 0c2,0 4,1 6,1 2,1 4,2 5,4 2,1 3,3 3,5 1,2 2,5 2,7zm-5 1c0,-3 0,-5 -1,-7 0,-1 -1,-3 -2,-4 -1,-1 -2,-2 -4,-2 -1,-1 -3,-1 -5,-1l-5 0 0 27 4 0c4,0 8,-1 10,-3 2,-3 3,-6 3,-10zm20 -4c2,0 3,0 5,0 1,1 2,1 3,2 1,1 2,2 3,4 0,1 1,2 1,4 0,2 -1,3 -1,5 -1,1 -2,2 -3,3 -1,1 -2,2 -4,3 -1,0 -3,1 -5,1 -1,0 -2,-1 -2,-1 -1,0 -2,0 -3,0 0,0 -1,0 -2,-1 0,0 -1,0 -1,0l0 -4c0,0 1,0 1,1 1,0 2,0 3,0 0,0 1,1 2,1 1,0 2,0 2,0 1,0 3,0 4,-1 1,0 1,0 2,-1 1,-1 1,-1 2,-2 0,-1 0,-2 0,-4 0,-2 -1,-4 -2,-5 -1,-1 -3,-2 -6,-2 0,0 -1,0 -1,0 -1,1 -1,1 -2,1 0,0 -1,0 -1,0 -1,0 -1,0 -2,0l-2 -1 2 -17 16 0 0 4 -13 0 -1 10c1,0 2,0 2,0 1,0 2,0 3,0z"/>
   <path fill="black" fill-rule="nonzero" d="M649 671c0,3 -1,6 -1,8 -1,2 -2,4 -4,5 -1,2 -3,3 -5,4 -2,0 -4,1 -7,1l-9 0 0 -35 10 0c2,0 5,0 6,1 2,1 4,2 5,3 2,2 3,4 4,6 0,2 1,4 1,7zm-5 0c0,-2 0,-4 -1,-6 0,-2 -1,-3 -2,-4 -1,-1 -2,-2 -4,-2 -1,-1 -3,-1 -5,-1l-4 0 0 27 4 0c4,0 7,-1 9,-4 2,-2 3,-5 3,-10zm34 10l-5 0 0 8 -5 0 0 -8 -16 0 0 -4 16 -23 5 0 0 23 5 0 0 4zm-10 -4l0 -8c0,-1 0,-2 0,-3 0,-1 0,-2 0,-3 1,-1 1,-2 1,-3 0,-1 0,-1 0,-2l-1 0c0,1 0,1 0,1 0,1 0,1 -1,1 0,1 0,1 0,2 0,0 -1,0 -1,1l-9 14 11 0z"/>
   <path fill="black" fill-rule="nonzero" d="M551 671c0,3 -1,5 -1,8 -1,2 -2,4 -4,5 -1,2 -3,3 -5,3 -2,1 -4,2 -7,2l-9 0 0 -35 10 0c2,0 4,0 6,1 2,1 4,2 5,3 2,2 3,3 4,5 0,3 1,5 1,8zm-5 0c0,-2 0,-4 -1,-6 0,-2 -1,-3 -2,-4 -1,-1 -2,-2 -4,-3 -1,0 -3,0 -5,0l-4 0 0 27 3 0c5,0 8,-1 10,-4 2,-2 3,-5 3,-10zm31 -9c0,1 -1,2 -1,3 0,1 -1,2 -2,3 0,0 -1,1 -2,1 -1,1 -2,1 -3,1l0 0c3,1 5,2 6,3 2,2 3,3 3,6 0,1 -1,3 -1,4 -1,1 -1,2 -3,3 -1,1 -2,2 -3,2 -2,1 -4,1 -6,1 -2,0 -4,0 -5,0 -2,-1 -3,-1 -4,-2l0 -4c1,1 3,1 4,2 2,0 3,0 5,0 1,0 2,0 4,0 1,0 1,-1 2,-1 1,-1 1,-2 2,-3 0,0 0,-1 0,-2 0,-2 0,-2 0,-3 -1,-1 -1,-2 -2,-2 -1,-1 -2,-1 -3,-1 -1,0 -2,-1 -4,-1l-3 0 0 -3 3 0c1,0 3,0 4,-1 1,0 1,0 2,-1 1,-1 1,-1 2,-2 0,-1 0,-2 0,-3 0,-1 0,-1 0,-2 -1,-1 -1,-1 -2,-2 0,0 -1,0 -1,-1 -1,0 -2,0 -3,0 -2,0 -3,0 -4,1 -2,0 -3,1 -4,2l-2 -3c0,-1 1,-1 2,-1 1,-1 1,-1 2,-2 1,0 2,0 3,0 1,-1 2,-1 3,-1 2,0 3,1 5,1 1,0 2,1 3,2 1,1 1,1 2,3 0,1 1,2 1,3z"/>
   <path fill="black" fill-rule="nonzero" d="M451 671c0,3 -1,6 -1,8 -1,2 -2,4 -4,6 -1,1 -3,2 -5,3 -2,1 -5,1 -7,1l-9 0 0 -35 10 0c2,0 4,1 6,1 2,1 4,2 5,4 2,1 3,3 4,5 0,2 1,5 1,7zm-5 0c0,-2 0,-4 -1,-6 0,-1 -1,-3 -2,-4 -1,-1 -2,-2 -4,-2 -1,-1 -3,-1 -5,-1l-4 0 0 27 3 0c5,0 8,-1 10,-3 2,-3 3,-6 3,-11zm32 18l-22 0 0 -4 8 -9c1,-1 2,-2 3,-3 1,-1 2,-2 3,-3 0,-1 1,-2 1,-3 1,-1 1,-3 1,-4 0,-1 0,-1 -1,-2 0,-1 0,-2 -1,-2 0,-1 -1,-1 -1,-1 -1,0 -2,-1 -3,-1 -1,0 -3,1 -4,1 -1,1 -2,2 -3,3l-3 -3c1,-1 2,-1 2,-2 1,0 2,-1 3,-1 1,0 1,-1 2,-1 1,0 2,0 3,0 2,0 3,0 4,0 2,1 3,1 4,2 0,1 1,2 2,3 0,1 0,3 0,4 0,1 0,3 0,4 -1,1 -1,2 -2,4 -1,1 -2,2 -3,3 -1,1 -2,3 -3,4l-7 7 0 0 17 0 0 4z"/>
   <path fill="black" fill-rule="nonzero" d="M358 671c0,3 -1,5 -1,8 -1,2 -2,4 -4,5 -1,2 -3,3 -5,3 -2,1 -4,2 -7,2l-9 0 0 -35 10 0c2,0 4,0 6,1 2,1 4,2 5,3 2,2 3,3 4,5 0,3 1,5 1,8zm-5 0c0,-2 0,-4 -1,-6 0,-2 -1,-3 -2,-4 -1,-1 -2,-2 -4,-3 -1,0 -3,0 -5,0l-4 0 0 27 3 0c5,0 8,-1 10,-4 2,-2 3,-5 3,-10zm25 18l-5 0 0 -22c0,-1 0,-2 0,-2 0,-1 0,-2 0,-3 0,0 0,-1 1,-2 0,-1 0,-1 0,-2 -1,1 -1,1 -1,1 0,0 -1,0 -1,1 0,0 0,0 0,0 -1,0 -1,1 -1,1l-4 3 -2 -3 9 -7 4 0 0 35z"/>
   <path fill="black" fill-rule="nonzero" d="M250 671c0,3 0,5 -1,8 -1,2 -2,4 -3,5 -2,2 -4,3 -6,3 -2,1 -4,2 -7,2l-8 0 0 -35 9 0c3,0 5,0 7,1 2,1 3,2 5,3 1,2 2,3 3,6 1,2 1,4 1,7zm-5 0c0,-2 0,-4 0,-6 -1,-2 -2,-3 -3,-4 -1,-1 -2,-2 -3,-3 -2,0 -3,0 -5,0l-5 0 0 27 4 0c4,0 7,-1 9,-4 2,-2 3,-5 3,-10zm33 0c0,3 -1,6 -1,8 0,2 -1,4 -2,5 -1,2 -2,3 -3,4 -2,1 -4,1 -6,1 -1,0 -3,0 -4,-1 -2,-1 -3,-2 -4,-4 -1,-1 -1,-3 -2,-5 0,-2 -1,-5 -1,-8 0,-3 1,-5 1,-7 0,-3 1,-4 2,-6 1,-1 2,-3 3,-3 2,-1 3,-2 5,-2 2,0 4,1 5,2 2,0 3,2 4,3 1,2 1,3 2,6 0,2 1,4 1,7zm-18 0c0,3 0,5 0,6 0,2 1,4 1,5 1,1 2,2 2,3 1,0 2,0 3,0 2,0 3,0 4,0 0,-1 1,-2 2,-3 0,-1 1,-3 1,-5 0,-1 0,-3 0,-6 0,-2 0,-4 0,-6 0,-2 -1,-3 -1,-4 -1,-2 -2,-3 -2,-3 -1,-1 -2,-1 -4,-1 -1,0 -2,0 -3,1 0,0 -1,1 -2,3 0,1 -1,2 -1,4 0,2 0,4 0,6z"/>
   <path fill="black" fill-rule="nonzero" d="M245 149l-3 -11 -13 0 -4 11 -5 0 13 -35 4 0 13 35 -5 0zm-5 -15l-3 -10c0,0 0,0 -1,-1 0,0 0,-1 0,-1 0,-1 0,-1 0,-2 -1,0 -1,-1 -1,-1 0,0 0,1 0,1 0,1 0,1 -1,2 0,0 0,1 0,1 0,1 0,1 0,1l-4 10 10 0zm34 -2c0,2 0,5 0,7 -1,2 -1,4 -2,6 -1,1 -2,2 -4,3 -1,1 -3,1 -5,1 -2,0 -3,0 -5,-1 -1,-1 -2,-2 -3,-3 -1,-2 -2,-4 -2,-6 0,-2 -1,-5 -1,-7 0,-3 1,-6 1,-8 0,-2 1,-4 2,-6 1,-1 2,-2 3,-3 2,-1 3,-1 5,-1 2,0 4,0 5,1 2,1 3,2 4,3 1,2 1,4 2,6 0,2 0,5 0,8zm-17 0c0,2 0,4 0,6 0,2 1,3 1,4 1,1 1,2 2,3 1,0 2,1 3,1 2,0 3,-1 3,-1 1,-1 2,-2 3,-3 0,-1 0,-2 1,-4 0,-2 0,-4 0,-6 0,-3 0,-5 0,-7 -1,-1 -1,-3 -1,-4 -1,-1 -2,-2 -3,-3 0,0 -1,-1 -3,-1 -1,0 -2,1 -3,1 -1,1 -1,2 -2,3 0,1 -1,3 -1,4 0,2 0,4 0,7z"/>
   <path fill="black" fill-rule="nonzero" d="M345 149l-3 -11 -13 0 -4 11 -5 0 13 -35 4 0 13 35 -5 0zm-5 -15l-3 -10c0,0 0,0 -1,-1 0,0 0,-1 0,-1 0,-1 0,-1 0,-2 -1,0 -1,-1 -1,-1 0,0 0,1 0,1 0,1 0,1 -1,2 0,0 0,1 0,1 0,1 0,1 0,1l-4 10 10 0zm27 15l-4 0 0 -22c0,0 0,-1 0,-2 0,-1 0,-1 0,-2 0,-1 0,-2 0,-2 0,-1 0,-2 0,-2 0,0 -1,0 -1,0 0,1 0,1 0,1 -1,0 -1,0 -1,1 0,0 -1,0 -1,0l-4 3 -2 -3 9 -7 4 0 0 35z"/>
   <path fill="black" fill-rule="nonzero" d="M445 149l-3 -11 -13 0 -4 11 -5 0 13 -35 4 0 13 35 -5 0zm-5 -15l-3 -10c0,0 0,0 -1,-1 0,0 0,-1 0,-1 0,-1 0,-1 0,-2 -1,0 -1,-1 -1,-1 0,0 0,1 0,1 0,1 0,1 -1,2 0,0 0,1 0,1 0,1 0,1 0,1l-4 10 10 0zm34 15l-22 0 0 -4 9 -9c1,-1 2,-2 3,-3 1,-1 1,-2 2,-3 1,-1 1,-2 2,-3 0,-1 0,-3 0,-4 0,-1 0,-2 0,-2 -1,-1 -1,-2 -1,-2 -1,-1 -1,-1 -2,-1 -1,0 -2,-1 -2,-1 -2,0 -3,1 -5,1 -1,1 -2,2 -3,3l-2 -3c0,-1 1,-1 2,-2 0,0 1,-1 2,-1 1,0 2,-1 3,-1 1,0 2,0 3,0 1,0 3,0 4,0 1,1 2,1 3,2 1,1 1,2 2,3 0,1 1,3 1,4 0,1 -1,3 -1,4 -1,1 -1,2 -2,3 -1,2 -1,3 -2,4 -1,1 -3,2 -4,4l-6 7 0 0 16 0 0 4z"/>
   <path fill="black" fill-rule="nonzero" d="M545 149l-3 -11 -13 0 -4 11 -5 0 13 -35 4 0 13 35 -5 0zm-5 -15l-3 -10c0,0 0,0 -1,-1 0,0 0,-1 0,-1 0,-1 0,-1 0,-2 -1,0 -1,-1 -1,-1 0,0 0,1 0,1 0,1 0,1 -1,2 0,0 0,1 0,1 0,1 0,1 0,1l-4 10 10 0zm33 -12c0,2 0,3 -1,4 0,1 -1,1 -1,2 -1,1 -2,1 -3,2 -1,0 -2,1 -3,1l0 0c3,0 5,1 7,3 1,1 2,3 2,5 0,2 0,3 -1,4 0,2 -1,3 -2,4 -1,0 -3,1 -4,2 -2,0 -4,0 -6,0 -2,0 -3,0 -5,0 -1,0 -3,-1 -4,-1l0 -4c1,0 3,1 4,1 2,1 4,1 5,1 2,0 3,0 4,-1 1,0 2,0 2,-1 1,-1 2,-1 2,-2 0,-1 0,-2 0,-3 0,-1 0,-2 0,-3 -1,-1 -1,-1 -2,-2 -1,0 -2,0 -3,-1 -1,0 -2,0 -4,0l-3 0 0 -4 3 0c2,0 3,0 4,0 1,-1 2,-1 2,-2 1,0 2,-1 2,-2 0,0 0,-1 0,-2 0,-1 0,-2 0,-3 0,0 -1,-1 -1,-1 -1,-1 -1,-1 -2,-1 -1,0 -2,-1 -3,-1 -1,0 -3,1 -4,1 -1,1 -3,1 -4,2l-2 -3c1,0 1,-1 2,-1 1,0 2,-1 2,-1 1,0 2,-1 3,-1 1,0 2,0 3,0 2,0 4,0 5,0 1,1 2,1 3,2 1,1 2,2 2,3 1,1 1,2 1,3z"/>
   <path fill="black" fill-rule="nonzero" d="M645 149l-3 -11 -13 0 -4 11 -5 0 13 -35 4 0 13 35 -5 0zm-5 -15l-3 -10c0,0 0,0 -1,-1 0,0 0,-1 0,-1 0,-1 0,-1 0,-2 -1,0 -1,-1 -1,-1 0,0 0,1 0,1 0,1 0,1 -1,2 0,0 0,1 0,1 0,1 0,1 0,1l-4 10 10 0zm36 7l-5 0 0 8 -4 0 0 -8 -16 0 0 -4 15 -23 5 0 0 23 5 0 0 4zm-9 -4l0 -8c0,-1 0,-2 0,-3 0,-1 0,-2 0,-3 0,-1 0,-2 0,-2 0,-1 0,-2 0,-2l0 0c0,0 -1,0 -1,1 0,0 0,0 0,1 -1,0 -1,1 -1,1 0,0 0,1 0,1l-10 14 12 0z"/>
   <path fill="black" fill-rule="nonzero" d="M745 149l-3 -11 -13 0 -4 11 -5 0 13 -35 4 0 13 35 -5 0zm-5 -15l-3 -10c0,0 0,0 -1,-1 0,0 0,-1 0,-1 0,-1 0,-1 0,-2 -1,0 -1,-1 -1,-1 0,0 0,1 0,1 0,1 0,1 -1,2 0,0 0,1 0,1 0,1 0,1 0,1l-4 10 10 0zm23 -6c1,0 3,0 4,0 2,1 3,1 4,2 1,1 2,2 2,3 1,2 1,3 1,5 0,2 0,3 -1,5 0,1 -1,2 -2,3 -1,1 -3,2 -4,3 -2,0 -3,0 -5,0 -1,0 -2,0 -3,0 -1,0 -1,0 -2,0 -1,0 -1,0 -2,-1 -1,0 -1,0 -2,0l0 -4c1,0 1,0 2,0 1,1 1,1 2,1 1,0 2,1 3,1 0,0 1,0 2,0 1,0 2,0 3,-1 1,0 2,0 3,-1 0,-1 1,-1 1,-2 0,-1 1,-2 1,-4 0,-2 -1,-4 -2,-5 -2,-1 -4,-2 -7,-2 0,0 0,0 -1,0 0,0 -1,1 -1,1 -1,0 -1,0 -2,0 0,0 -1,0 -1,0l-2 -1 1 -17 17 0 0 4 -13 0 -1 10c0,0 1,0 2,0 1,0 2,0 3,0z"/>
   <path fill="black" fill-rule="nonzero" d="M1131 149l-4 0 0 -31 -10 0 0 -4 24 0 0 4 -10 0 0 31zm38 0l-6 0 -8 -15 -9 15 -4 0 11 -18 -10 -17 4 0 8 13 8 -13 5 0 -10 17 11 18z"/>
   <path fill="black" fill-rule="nonzero" d="M1032 135l0 14 -4 0 0 -35 8 0c4,0 7,1 9,3 2,1 3,4 3,7 0,1 0,3 0,4 -1,1 -1,2 -2,2 0,1 -1,2 -2,2 -1,1 -2,1 -2,1l9 16 -5 0 -9 -14 -5 0zm0 -4l4 0c1,0 2,0 3,-1 1,0 2,0 3,-1 1,0 1,-1 1,-2 1,-1 1,-2 1,-3 0,-1 0,-2 -1,-3 0,0 -1,-1 -1,-2 -1,0 -2,0 -3,-1 -1,0 -2,0 -3,0l-4 0 0 13zm46 18l-5 0 -8 -15 -9 15 -4 0 10 -18 -10 -17 5 0 8 13 8 -13 4 0 -10 17 11 18z"/>
   <path fill="black" fill-rule="nonzero" d="M1216 131l11 0 0 17c-1,0 -2,0 -3,1 0,0 -1,0 -2,0 -1,0 -2,0 -3,0 -1,0 -2,1 -4,1 -2,0 -4,-1 -6,-2 -2,-1 -4,-2 -5,-3 -1,-2 -2,-4 -3,-6 -1,-2 -1,-5 -1,-7 0,-3 0,-6 1,-8 1,-2 2,-4 3,-5 2,-2 4,-3 6,-4 2,-1 4,-1 7,-1 2,0 3,0 5,0 2,1 3,1 5,2l-2 4c-1,-1 -1,-1 -2,-1 -1,0 -1,0 -2,-1 -1,0 -1,0 -2,0 -1,0 -2,0 -2,0 -2,0 -4,0 -5,1 -2,0 -3,1 -4,2 -1,2 -2,3 -2,5 -1,2 -1,4 -1,6 0,2 0,4 0,5 1,2 1,4 2,5 1,1 3,2 4,3 2,0 3,1 6,1 0,0 1,0 1,0 1,0 2,-1 2,-1 1,0 1,0 1,0 1,0 1,0 2,0l0 -10 -7 0 0 -4zm45 18l-5 0 -17 -29 0 0c0,2 0,3 1,4 0,1 0,2 0,3 0,1 0,2 0,3l0 19 -5 0 0 -35 6 0 16 29 0 0c0,-1 0,-2 0,-4 0,0 0,-1 0,-1 0,-1 0,-1 0,-2 0,0 0,-1 0,-1 0,-1 0,-1 0,-2l0 -19 4 0 0 35zm35 -18c0,3 0,6 -1,8 -1,2 -2,4 -3,6 -2,1 -3,2 -5,3 -3,1 -5,1 -8,1l-8 0 0 -35 9 0c3,0 5,1 7,1 2,1 4,2 5,4 1,1 2,3 3,5 1,2 1,5 1,7zm-4 1c0,-3 -1,-5 -1,-6 -1,-2 -1,-4 -2,-5 -1,-1 -3,-2 -4,-2 -2,-1 -3,-1 -5,-1l-5 0 0 27 4 0c4,0 7,-1 9,-3 3,-3 4,-6 4,-10z"/>
   <path fill="black" fill-rule="nonzero" d="M1338 114l4 0 -11 35 -5 0 -11 -35 4 0 7 22c1,2 1,3 2,4 0,2 0,3 0,4 1,-1 1,-2 1,-4 1,-1 1,-3 2,-4l7 -22zm19 35l-13 0 0 -3 4 -1 0 -28 -4 0 0 -3 13 0 0 3 -4 0 0 28 4 1 0 3zm32 0l-5 0 -16 -29 -1 0c0,1 1,3 1,4 0,1 0,2 0,3 0,1 0,2 0,3l0 19 -5 0 0 -35 6 0 16 29 0 0c0,-2 0,-3 0,-4 0,0 0,-1 0,-1 0,-1 0,-1 0,-2 0,-1 0,-1 0,-2 0,0 0,-1 0,-1l0 -19 4 0 0 35z"/>
   <path fill="black" fill-rule="nonzero" d="M1123 654l4 0 -11 32 -4 0 -10 -32 4 0 6 20c1,1 1,3 1,4 1,1 1,2 1,3 0,-1 1,-2 1,-3 0,-1 1,-3 1,-4l7 -20zm8 0l9 0c2,0 3,0 5,0 1,1 2,1 3,2 1,0 2,1 2,2 1,1 1,2 1,4 0,1 0,2 0,2 -1,1 -1,2 -2,3 0,0 -1,1 -1,1 -1,0 -2,1 -3,1l0 0c1,0 2,0 3,1 1,0 1,1 2,1 1,1 1,1 1,2 1,1 1,2 1,3 0,2 0,3 -1,4 0,1 -1,2 -2,3 -1,1 -2,2 -3,2 -1,0 -3,1 -4,1l-11 0 0 -32zm4 13l6 0c1,0 2,0 3,0 0,0 1,0 2,-1 0,0 1,-1 1,-2 0,0 0,-1 0,-2 0,-2 0,-3 -2,-4 -1,0 -2,-1 -5,-1l-5 0 0 10zm0 4l0 11 6 0c1,0 2,0 3,0 1,-1 2,-1 2,-1 1,-1 1,-2 1,-2 1,-1 1,-2 1,-3 0,-1 0,-1 -1,-2 0,-1 0,-1 -1,-2 0,0 -1,-1 -2,-1 -1,0 -2,0 -3,0l-6 0zm42 15l-3 -10 -12 0 -4 10 -4 0 12 -32 4 0 11 32 -4 0zm-4 -14l-4 -9c0,0 0,-1 0,-1 0,0 0,-1 0,-1 0,-1 -1,-1 -1,-1 0,-1 0,-1 0,-2 0,1 0,1 0,2 -1,0 -1,0 -1,1 0,0 0,1 0,1 0,0 0,1 -1,1l-3 9 10 0zm22 14l-4 0 0 -29 -9 0 0 -3 22 0 0 3 -9 0 0 29z"/>
   <path fill="black" fill-rule="nonzero" d="M832 131c0,3 0,6 -1,8 -1,2 -2,4 -3,5 -2,2 -3,3 -5,4 -2,1 -5,1 -8,1l-8 0 0 -35 9 0c3,0 5,1 7,1 2,1 4,2 5,4 1,1 2,3 3,5 1,2 1,4 1,7zm-4 0c0,-2 -1,-4 -1,-6 -1,-1 -1,-3 -2,-4 -1,-1 -3,-2 -4,-2 -2,-1 -3,-1 -5,-1l-5 0 0 27 4 0c4,0 7,-1 10,-3 2,-3 3,-6 3,-11zm32 18l-3 -11 -13 0 -4 11 -5 0 13 -35 4 0 13 35 -5 0zm-5 -15l-3 -10c0,0 -1,0 -1,-1 0,0 0,-1 0,-1 0,-1 0,-1 -1,-2 0,0 0,-1 0,-1 0,0 0,1 0,1 0,1 -1,1 -1,2 0,0 0,1 0,1 0,1 0,1 0,1l-4 10 10 0zm29 -16c-2,0 -4,0 -5,1 -1,0 -2,1 -3,2 -1,2 -2,3 -3,5 0,1 0,3 0,6 0,2 0,4 0,5 1,2 1,4 2,5 1,1 2,2 4,3 1,0 3,0 5,0 1,0 2,0 4,0 1,0 2,0 3,-1l0 4c0,0 -1,0 -1,1 -1,0 -2,0 -2,0 -1,0 -2,0 -2,0 -1,0 -2,0 -3,0 -3,0 -5,0 -7,-1 -2,-1 -3,-2 -4,-4 -2,-1 -3,-3 -3,-5 -1,-2 -1,-5 -1,-7 0,-3 0,-6 1,-8 1,-2 2,-4 3,-5 1,-2 3,-3 5,-4 2,-1 4,-1 7,-1 1,0 3,0 5,0 1,1 3,1 4,2l-2 3c-1,0 -2,0 -3,-1 -1,0 -3,0 -4,0z"/>
   <path fill="black" fill-rule="nonzero" d="M928 114l5 0 5 21c0,0 0,1 1,2 0,1 0,2 0,3 1,1 1,1 1,2 0,1 0,2 0,2 0,0 0,-1 0,-2 1,-1 1,-1 1,-2 0,-1 0,-2 0,-2 0,-1 1,-2 1,-3l4 -21 5 0 -9 35 -4 0 -6 -22c0,-1 0,-2 -1,-3 0,-1 0,-2 0,-2 0,-1 -1,-2 -1,-3 0,1 0,2 0,3 0,0 -1,1 -1,2 0,1 0,2 0,3l-6 22 -5 0 -9 -35 5 0 5 21c0,1 0,2 1,3 0,0 0,1 0,2 0,1 0,1 0,2 1,1 1,2 1,2 0,0 0,-1 0,-2 0,-1 0,-2 0,-2 1,-1 1,-2 1,-3 0,-1 0,-2 1,-2l5 -21zm52 35l-5 0 -11 -17 -3 3 0 14 -5 0 0 -35 5 0 0 18 3 -4 10 -14 5 0 -12 15 13 20zm25 -25c0,2 0,3 0,4 -1,2 -2,3 -3,4 0,1 -2,2 -3,2 -2,1 -4,1 -7,1l-3 0 0 14 -5 0 0 -35 9 0c2,0 4,0 6,1 1,0 2,1 3,2 1,1 2,2 3,3 0,1 0,3 0,4zm-16 8l3 0c1,0 3,-1 4,-1 1,0 2,0 2,-1 1,-1 2,-1 2,-2 0,-1 1,-2 1,-3 0,-3 -1,-4 -2,-5 -2,-1 -4,-2 -6,-2l-4 0 0 14z"/>
  </g>
  <g id="copper0">
   <path id="connector7pad" fill="none" stroke="#FFBF00" stroke-width="16" d="M476 750c0,-14 -12,-26 -26,-26 -15,0 -26,12 -26,26 0,15 11,26 26,26 14,0 26,-11 26,-26z"/>
   <path id="connector7pad_0" fill="none" stroke="#FFBF00" stroke-width="16" d="M576 750c0,-14 -12,-26 -26,-26 -15,0 -26,12 -26,26 0,15 11,26 26,26 14,0 26,-11 26,-26z"/>
   <path id="connector7pad_1" fill="none" stroke="#FFBF00" stroke-width="16" d="M376 750c0,-14 -12,-26 -26,-26 -15,0 -26,12 -26,26 0,15 11,26 26,26 14,0 26,-11 26,-26z"/>
   <path id="connector7pad_2" fill="none" stroke="#FFBF00" stroke-width="16" d="M276 750c0,-14 -12,-26 -26,-26 -15,0 -26,12 -26,26 0,15 11,26 26,26 14,0 26,-11 26,-26z"/>
   <path id="connector7pad_3" fill="none" stroke="#FFBF00" stroke-width="16" d="M676 750c0,-14 -12,-26 -26,-26 -15,0 -26,12 -26,26 0,15 11,26 26,26 14,0 26,-11 26,-26z"/>
   <path id="connector7pad_4" fill="none" stroke="#FFBF00" stroke-width="16" d="M776 750c0,-14 -12,-26 -26,-26 -15,0 -26,12 -26,26 0,15 11,26 26,26 14,0 26,-11 26,-26z"/>
   <path id="connector7pad_5" fill="none" stroke="#FFBF00" stroke-width="16" d="M876 750c0,-14 -12,-26 -26,-26 -15,0 -26,12 -26,26 0,15 11,26 26,26 14,0 26,-11 26,-26z"/>
   <path id="connector7pad_6" fill="none" stroke="#FFBF00" stroke-width="16" d="M976 750c0,-14 -12,-26 -26,-26 -15,0 -26,12 -26,26 0,15 11,26 26,26 14,0 26,-11 26,-26z"/>
   <path id="connector7pad_7" fill="none" stroke="#FFBF00" stroke-width="16" d="M1076 750c0,-14 -12,-26 -26,-26 -15,0 -26,12 -26,26 0,15 11,26 26,26 14,0 26,-11 26,-26z"/>
   <path id="connector7pad_8" fill="none" stroke="#FFBF00" stroke-width="16" d="M1176 750c0,-14 -12,-26 -26,-26 -15,0 -26,12 -26,26 0,15 11,26 26,26 14,0 26,-11 26,-26z"/>
   <path id="connector7pad_9" fill="none" stroke="#FFBF00" stroke-width="16" d="M1276 750c0,-14 -12,-26 -26,-26 -15,0 -26,12 -26,26 0,15 11,26 26,26 14,0 26,-11 26,-26z"/>
   <path id="connector7pad_10" fill="none" stroke="#FFBF00" stroke-width="16" d="M1376 750c0,-14 -12,-26 -26,-26 -15,0 -26,12 -26,26 0,15 11,26 26,26 14,0 26,-11 26,-26z"/>
   <path id="connector7pad_11" fill="none" stroke="#FFBF00" stroke-width="16" d="M576 50c0,-14 -12,-26 -26,-26 -15,0 -26,12 -26,26 0,15 11,26 26,26 14,0 26,-11 26,-26z"/>
   <path id="connector7pad_12" fill="none" stroke="#FFBF00" stroke-width="16" d="M476 50c0,-14 -12,-26 -26,-26 -15,0 -26,12 -26,26 0,15 11,26 26,26 14,0 26,-11 26,-26z"/>
   <path id="connector7pad_13" fill="none" stroke="#FFBF00" stroke-width="16" d="M376 50c0,-14 -12,-26 -26,-26 -15,0 -26,12 -26,26 0,15 11,26 26,26 14,0 26,-11 26,-26z"/>
   <path id="connector7pad_14" fill="none" stroke="#FFBF00" stroke-width="16" d="M276 50c0,-14 -12,-26 -26,-26 -15,0 -26,12 -26,26 0,15 11,26 26,26 14,0 26,-11 26,-26z"/>
   <path id="connector7pad_15" fill="none" stroke="#FFBF00" stroke-width="16" d="M676 50c0,-14 -12,-26 -26,-26 -15,0 -26,12 -26,26 0,15 11,26 26,26 14,0 26,-11 26,-26z"/>
   <path id="connector7pad_16" fill="none" stroke="#FFBF00" stroke-width="16" d="M776 50c0,-14 -12,-26 -26,-26 -15,0 -26,12 -26,26 0,15 11,26 26,26 14,0 26,-11 26,-26z"/>
   <path id="connector7pad_17" fill="none" stroke="#FFBF00" stroke-width="16" d="M876 50c0,-14 -12,-26 -26,-26 -15,0 -26,12 -26,26 0,15 11,26 26,26 14,0 26,-11 26,-26z"/>
   <path id="connector7pad_18" fill="none" stroke="#FFBF00" stroke-width="16" d="M976 50c0,-14 -12,-26 -26,-26 -15,0 -26,12 -26,26 0,15 11,26 26,26 14,0 26,-11 26,-26z"/>
   <path id="connector7pad_19" fill="none" stroke="#FFBF00" stroke-width="16" d="M1176 50c0,-14 -12,-26 -26,-26 -15,0 -26,12 -26,26 0,15 11,26 26,26 14,0 26,-11 26,-26z"/>
   <path id="connector7pad_20" fill="none" stroke="#FFBF00" stroke-width="16" d="M1076 50c0,-14 -12,-26 -26,-26 -15,0 -26,12 -26,26 0,15 11,26 26,26 14,0 26,-11 26,-26z"/>
   <path id="connector7pad_21" fill="none" stroke="#FFBF00" stroke-width="16" d="M1276 50c0,-14 -12,-26 -26,-26 -15,0 -26,12 -26,26 0,15 11,26 26,26 14,0 26,-11 26,-26z"/>
   <path id="connector7pad_22" fill="none" stroke="#FFBF00" stroke-width="16" d="M1376 50c0,-14 -12,-26 -26,-26 -15,0 -26,12 -26,26 0,15 11,26 26,26 14,0 26,-11 26,-26z"/>
  </g>
 </g>
</svg>
