<?xml version="1.0" encoding="UTF-8"?>
<!DOCTYPE svg PUBLIC "-//W3C//DTD SVG 1.1//EN" "http://www.w3.org/Graphics/SVG/1.1/DTD/svg11.dtd">
<!-- Creator: CorelDRAW -->
<svg xmlns="http://www.w3.org/2000/svg" xml:space="preserve" width="1.484in" height="0.801in" shape-rendering="geometricPrecision" text-rendering="geometricPrecision" image-rendering="optimizeQuality" fill-rule="evenodd" clip-rule="evenodd"
viewBox="0 0 1.484 0.801">
 <g id="SPARKCORE">
  <metadata id="CorelCorpID_0Corel-Layer"/>
  <g id="PCB">
   <polygon id="_374655672" fill="whitesmoke" points="1.40057,-0.000275591 1.40057,0.793575 1.39855,0.800276 0.100669,0.800276 0.00023622,0.699823 0.00023622,0.0994016 0.100551,-0.000275591 "/>
   <polygon id="_374654472" fill="#CCCCCC" points="1.40057,0.793575 1.39855,0.800276 0.100669,0.800276 0.00023622,0.699823 0.00023622,0.692917 0.100669,0.793575 "/>
   <polygon id="_374654232" fill="#B2B2B2" points="0.100669,0.800276 0.00023622,0.699823 0.00023622,0.692917 0.100669,0.793575 "/>
  </g>
  <g id="RGB_x0020_LED">
   <g>
    <rect id="_275415424" fill="#CCCCCC" transform="matrix(-2.9663E-014 0.647245 -1.0402 -1.45697E-013 1.04291 0.412665)" width="0.060815" height="0.0336496"/>
    <rect id="_275425504" fill="#E5E5E5" transform="matrix(-2.99276E-015 0.0653017 -1.0402 -1.45697E-013 1.04291 0.448056)" width="0.060815" height="0.0336496"/>
   </g>
   <g>
    <rect id="_275430400" fill="#CCCCCC" transform="matrix(-2.9663E-014 0.647245 -1.0402 -1.45697E-013 1.04291 0.346787)" width="0.060815" height="0.0336496"/>
    <rect id="_275416432" fill="#E5E5E5" transform="matrix(-2.99276E-015 0.0653017 -1.0402 -1.45697E-013 1.04291 0.382178)" width="0.060815" height="0.0336496"/>
   </g>
   <g>
    <rect id="_275411992" fill="#CCCCCC" transform="matrix(-2.9663E-014 0.647245 -1.0402 -1.45697E-013 1.15372 0.412531)" width="0.060815" height="0.0336496"/>
    <rect id="_275430304" fill="#E5E5E5" transform="matrix(-2.99276E-015 0.0653017 -1.0402 -1.45697E-013 1.15372 0.447922)" width="0.060815" height="0.0336496"/>
   </g>
   <g>
    <rect id="_275415232" fill="#CCCCCC" transform="matrix(-2.9663E-014 0.647245 -1.0402 -1.45697E-013 1.15372 0.34615)" width="0.060815" height="0.0336496"/>
    <rect id="_275415040" fill="#E5E5E5" transform="matrix(-2.99276E-015 0.0653017 -1.0402 -1.45697E-013 1.15372 0.38154)" width="0.060815" height="0.0336496"/>
   </g>
   <polygon id="_374648328" fill="#E5E5E5" stroke="#999999" stroke-width="0.003" points="1.14386,0.344575 1.14386,0.453382 1.01787,0.453382 1.01787,0.344575 "/>
   <polygon id="_374647080" fill="white" stroke="#999999" stroke-width="0.003" points="1.14386,0.344575 1.14386,0.430264 1.12098,0.453382 1.01787,0.453382 1.01787,0.344575 "/>
   <path id="_374646840" fill="#999999" stroke="#666666" stroke-width="0.003" d="M1.12459 0.39898c0,0.0241496 -0.0195827,0.0437323 -0.0437323,0.0437323 -0.0241496,0 -0.0437323,-0.0195827 -0.0437323,-0.0437323 0,-0.0241496 0.0195827,-0.0437323 0.0437323,-0.0437323 0.0241496,0 0.0437323,0.0195827 0.0437323,0.0437323z"/>
   <path id="_374645592" fill="#CCCCCC" d="M1.1027 0.400051c-0.000543307,0.0112205 -0.00955118,0.0202244 -0.0207717,0.0207677l0 -0.0207677 0.0207717 0z"/>
   <path id="_374645352" fill="#1B5BB3" d="M1.1027 0.397909c-0.000543307,-0.0112205 -0.00955118,-0.0202244 -0.0207717,-0.0207677l0 0.0207677 0.0207717 0z"/>
   <path id="_374644104" fill="#00A63D" d="M1.05902 0.397909c0.000543307,-0.0112205 0.00955118,-0.0202244 0.0207717,-0.0207677l0 0.0207677 -0.0207717 0z"/>
   <path id="_374643864" fill="#CC1414" d="M1.05902 0.400051c0.000543307,0.0112205 0.00955118,0.0202244 0.0207717,0.0207677l0 -0.0207677 -0.0207717 0z"/>
   <path id="_374642664" fill="none" stroke="#999999" stroke-width="0.003" d="M1.10273 0.39898c0,0.0120748 -0.00979134,0.0218661 -0.0218661,0.0218661 -0.0120748,0 -0.0218661,-0.00979134 -0.0218661,-0.0218661 0,-0.0120748 0.00979134,-0.0218661 0.0218661,-0.0218661 0.0120748,0 0.0218661,0.00979134 0.0218661,0.0218661z"/>
  </g>
  <g id="MISC_x0020_COMPS">
   <polygon id="_374641224" fill="#CCCCCC" points="0.21785,0.172063 0.21785,0.235323 0.182846,0.235323 0.182846,0.172063 "/>
   <polygon id="_374640984" fill="#CCCCCC" points="0.21785,0.458264 0.21785,0.521524 0.182846,0.521524 0.182846,0.458264 "/>
   <polygon id="_374639784" fill="#CCCCCC" points="0.973535,0.531827 0.973535,0.595087 0.938531,0.595087 0.938531,0.531827 "/>
   <polygon id="_374639544" fill="#CCCCCC" points="0.973535,0.203114 0.973535,0.266374 0.938531,0.266374 0.938531,0.203114 "/>
   <polygon id="_374640096" fill="#CCCCCC" points="0.973535,0.36735 0.973535,0.43061 0.938531,0.43061 0.938531,0.36735 "/>
   <polygon id="_374641104" fill="#CCCCCC" points="1.26558,0.152276 1.26558,0.215535 1.23058,0.215535 1.23058,0.152276 "/>
   <polygon id="_374642352" fill="#CCCCCC" points="1.38358,0.073626 1.38358,0.216043 1.29767,0.216043 1.29767,0.073626 "/>
   <polygon id="_374643048" fill="#CCCCCC" points="1.12907,0.486205 1.19233,0.486205 1.19233,0.521209 1.12907,0.521209 "/>
   <polygon id="_374644440" fill="#CCCCCC" points="1.12907,0.277626 1.19233,0.277626 1.19233,0.31263 1.12907,0.31263 "/>
  </g>
  <g id="UFL">
   <path id="_374652792" fill="white" stroke="#8C8C8C" stroke-width="0.003" d="M0.247937 0.544728l0 0.0795669c0,0.00414961 -0.0033622,0.00754331 -0.00747244,0.00754331l-0.0784528 0c-0.00411417,0 -0.00747244,-0.0033937 -0.00747244,-0.00754331l0 -0.0795669c0,-0.00415354 0.00335827,-0.00754331 0.00747244,-0.00754331l0.0784528 0c0.00411024,0 0.00747244,0.00338976 0.00747244,0.00754331z"/>
   <path id="_374651544" fill="white" stroke="#8C8C8C" stroke-width="0.003" d="M0.228339 0.584811c0,0.0151339 -0.0122717,0.0274055 -0.0274055,0.0274055 -0.0151339,0 -0.0274055,-0.0122717 -0.0274055,-0.0274055 0,-0.0151339 0.0122717,-0.0274055 0.0274055,-0.0274055 0.0151339,0 0.0274055,0.0122717 0.0274055,0.0274055z"/>
   <path id="_374651304" fill="#CC9933" d="M0.207752 0.584811c0,0.00376378 -0.00305512,0.0068189 -0.0068189,0.0068189 -0.00376378,0 -0.0068189,-0.00305512 -0.0068189,-0.0068189 0,-0.00376378 0.00305512,-0.0068189 0.0068189,-0.0068189 0.00376378,0 0.0068189,0.00305512 0.0068189,0.0068189z"/>
  </g>
  <g id="ANT">
   <polygon id="_374648568" fill="#CCCCCC" points="0.0603268,0.276323 0.0603268,0.52078 0.0215709,0.52078 0.0215709,0.276323 "/>
   <polygon id="_374645472" fill="#999999" points="0.0603268,0.241205 0.0603268,0.276323 0.0215709,0.276323 0.0215709,0.241205 "/>
   <polygon id="_374646768" fill="#999999" points="0.0603268,0.52078 0.0603268,0.555898 0.0215709,0.555898 0.0215709,0.52078 "/>
   <polygon id="_374647512" fill="#CC9933" points="0.0603268,0.291134 0.0603268,0.304953 0.0215709,0.304953 0.0215709,0.291134 "/>
  </g>
  <g id="PINS">
   <g>
    <path id="_374648904" fill="#B2B2B2" d="M1.08633 0.749598c0,0.0192362 -0.0155984,0.0348346 -0.0348307,0.0348346 -0.0192362,0 -0.0348346,-0.0155984 -0.0348346,-0.0348346 0,-0.0192323 0.0155984,-0.0348307 0.0348346,-0.0348307 0.0192323,0 0.0348307,0.0155984 0.0348307,0.0348307z"/>
    <path id="_374649936" fill="#8C8C8C" d="M1.07612 0.724972c-0.00894488,0.0037126 -0.0165039,0.0123425 -0.024626,0.024626 -0.0102992,-0.0129134 -0.0185,-0.0235984 -0.0246339,-0.024626 0.00721654,-0.00685039 0.0154291,-0.010252 0.0246339,-0.0102047 0.00938583,-0.00015748 0.0175984,0.00324409 0.024626,0.0102047z"/>
    <path id="_374651232" fill="white" d="M1.05791 0.749602c0,0.00353937 -0.00287008,0.00641339 -0.00641339,0.00641339 -0.00353937,0 -0.00641339,-0.00287402 -0.00641339,-0.00641339 0,-0.00354331 0.00287402,-0.00641339 0.00641339,-0.00641339 0.00354331,0 0.00641339,0.00287008 0.00641339,0.00641339z"/>
   </g>
   <g>
    <path id="_374652720" fill="#B2B2B2" d="M0.886327 0.749598c0,0.0192362 -0.0155984,0.0348346 -0.0348307,0.0348346 -0.0192362,0 -0.0348346,-0.0155984 -0.0348346,-0.0348346 0,-0.0192323 0.0155984,-0.0348307 0.0348346,-0.0348307 0.0192323,0 0.0348307,0.0155984 0.0348307,0.0348307z"/>
    <path id="_374653464" fill="#8C8C8C" d="M0.876122 0.724972c-0.00894488,0.0037126 -0.0165039,0.0123425 -0.024626,0.024626 -0.0102992,-0.0129134 -0.0185,-0.0235984 -0.0246339,-0.024626 0.00721654,-0.00685039 0.0154291,-0.010252 0.0246339,-0.0102047 0.00938583,-0.00015748 0.0175984,0.00324409 0.024626,0.0102047z"/>
    <path id="_374654784" fill="white" d="M0.857906 0.749602c0,0.00353937 -0.00287008,0.00641339 -0.00641339,0.00641339 -0.00353937,0 -0.00641339,-0.00287402 -0.00641339,-0.00641339 0,-0.00354331 0.00287402,-0.00641339 0.00641339,-0.00641339 0.00354331,0 0.00641339,0.00287008 0.00641339,0.00641339z"/>
   </g>
   <g>
    <path id="_374656248" fill="#B2B2B2" d="M0.786327 0.749598c0,0.0192362 -0.0155984,0.0348346 -0.0348307,0.0348346 -0.0192362,0 -0.0348346,-0.0155984 -0.0348346,-0.0348346 0,-0.0192323 0.0155984,-0.0348307 0.0348346,-0.0348307 0.0192323,0 0.0348307,0.0155984 0.0348307,0.0348307z"/>
    <path id="_374657232" fill="#8C8C8C" d="M0.776122 0.724972c-0.00894488,0.0037126 -0.0165039,0.0123425 -0.024626,0.024626 -0.0102992,-0.0129134 -0.0185,-0.0235984 -0.0246339,-0.024626 0.00721654,-0.00685039 0.0154291,-0.010252 0.0246339,-0.0102047 0.00938583,-0.00015748 0.0175984,0.00324409 0.024626,0.0102047z"/>
    <path id="_374658480" fill="white" d="M0.757906 0.749602c0,0.00353937 -0.00287008,0.00641339 -0.00641339,0.00641339 -0.00353937,0 -0.00641339,-0.00287402 -0.00641339,-0.00641339 0,-0.00354331 0.00287402,-0.00641339 0.00641339,-0.00641339 0.00354331,0 0.00641339,0.00287008 0.00641339,0.00641339z"/>
   </g>
   <g>
    <path id="_374659968" fill="#B2B2B2" d="M0.686327 0.749598c0,0.0192362 -0.0155984,0.0348346 -0.0348307,0.0348346 -0.0192362,0 -0.0348346,-0.0155984 -0.0348346,-0.0348346 0,-0.0192323 0.0155984,-0.0348307 0.0348346,-0.0348307 0.0192323,0 0.0348307,0.0155984 0.0348307,0.0348307z"/>
    <path id="_374660712" fill="#8C8C8C" d="M0.676122 0.724972c-0.00894488,0.0037126 -0.0165039,0.0123425 -0.024626,0.024626 -0.0102992,-0.0129134 -0.0185,-0.0235984 -0.0246339,-0.024626 0.00721654,-0.00685039 0.0154291,-0.010252 0.0246339,-0.0102047 0.00938583,-0.00015748 0.0175984,0.00324409 0.024626,0.0102047z"/>
    <path id="_374662104" fill="white" d="M0.657906 0.749602c0,0.00353937 -0.00287008,0.00641339 -0.00641339,0.00641339 -0.00353937,0 -0.00641339,-0.00287402 -0.00641339,-0.00641339 0,-0.00354331 0.00287402,-0.00641339 0.00641339,-0.00641339 0.00354331,0 0.00641339,0.00287008 0.00641339,0.00641339z"/>
   </g>
   <g>
    <path id="_374663592" fill="#B2B2B2" d="M0.586327 0.749598c0,0.0192362 -0.0155984,0.0348346 -0.0348307,0.0348346 -0.0192362,0 -0.0348346,-0.0155984 -0.0348346,-0.0348346 0,-0.0192323 0.0155984,-0.0348307 0.0348346,-0.0348307 0.0192323,0 0.0348307,0.0155984 0.0348307,0.0348307z"/>
    <path id="_374664624" fill="#8C8C8C" d="M0.576122 0.724972c-0.00894488,0.0037126 -0.0165039,0.0123425 -0.024626,0.024626 -0.0102992,-0.0129134 -0.0185,-0.0235984 -0.0246339,-0.024626 0.00721654,-0.00685039 0.0154291,-0.010252 0.0246339,-0.0102047 0.00938583,-0.00015748 0.0175984,0.00324409 0.024626,0.0102047z"/>
    <path id="_374665920" fill="white" d="M0.557906 0.749602c0,0.00353937 -0.00287008,0.00641339 -0.00641339,0.00641339 -0.00353937,0 -0.00641339,-0.00287402 -0.00641339,-0.00641339 0,-0.00354331 0.00287402,-0.00641339 0.00641339,-0.00641339 0.00354331,0 0.00641339,0.00287008 0.00641339,0.00641339z"/>
   </g>
   <g>
    <path id="_374667408" fill="#B2B2B2" d="M0.486327 0.749598c0,0.0192362 -0.0155984,0.0348346 -0.0348307,0.0348346 -0.0192362,0 -0.0348346,-0.0155984 -0.0348346,-0.0348346 0,-0.0192323 0.0155984,-0.0348307 0.0348346,-0.0348307 0.0192323,0 0.0348307,0.0155984 0.0348307,0.0348307z"/>
    <path id="_374668152" fill="#8C8C8C" d="M0.476122 0.724972c-0.00894488,0.0037126 -0.0165039,0.0123425 -0.024626,0.024626 -0.0102992,-0.0129134 -0.0185,-0.0235984 -0.0246339,-0.024626 0.00721654,-0.00685039 0.0154291,-0.010252 0.0246339,-0.0102047 0.00938583,-0.00015748 0.0175984,0.00324409 0.024626,0.0102047z"/>
    <path id="_374669472" fill="white" d="M0.457906 0.749602c0,0.00353937 -0.00287008,0.00641339 -0.00641339,0.00641339 -0.00353937,0 -0.00641339,-0.00287402 -0.00641339,-0.00641339 0,-0.00354331 0.00287402,-0.00641339 0.00641339,-0.00641339 0.00354331,0 0.00641339,0.00287008 0.00641339,0.00641339z"/>
   </g>
   <g>
    <path id="_374670936" fill="#B2B2B2" d="M0.386327 0.749598c0,0.0192362 -0.0155984,0.0348346 -0.0348307,0.0348346 -0.0192362,0 -0.0348346,-0.0155984 -0.0348346,-0.0348346 0,-0.0192323 0.0155984,-0.0348307 0.0348346,-0.0348307 0.0192323,0 0.0348307,0.0155984 0.0348307,0.0348307z"/>
    <path id="_374671920" fill="#8C8C8C" d="M0.376122 0.724972c-0.00894488,0.0037126 -0.0165039,0.0123425 -0.024626,0.024626 -0.0102992,-0.0129134 -0.0185,-0.0235984 -0.0246339,-0.024626 0.00721654,-0.00685039 0.0154291,-0.010252 0.0246339,-0.0102047 0.00938583,-0.00015748 0.0175984,0.00324409 0.024626,0.0102047z"/>
    <path id="_374613984" fill="white" d="M0.357906 0.749602c0,0.00353937 -0.00287008,0.00641339 -0.00641339,0.00641339 -0.00353937,0 -0.00641339,-0.00287402 -0.00641339,-0.00641339 0,-0.00354331 0.00287402,-0.00641339 0.00641339,-0.00641339 0.00354331,0 0.00641339,0.00287008 0.00641339,0.00641339z"/>
   </g>
   <g>
    <path id="_374612880" fill="#B2B2B2" d="M0.186327 0.749598c0,0.0192362 -0.0155984,0.0348346 -0.0348307,0.0348346 -0.0192362,0 -0.0348346,-0.0155984 -0.0348346,-0.0348346 0,-0.0192323 0.0155984,-0.0348307 0.0348346,-0.0348307 0.0192323,0 0.0348307,0.0155984 0.0348307,0.0348307z"/>
    <path id="_374612448" fill="#8C8C8C" d="M0.176122 0.724972c-0.00894488,0.0037126 -0.0165039,0.0123425 -0.024626,0.024626 -0.0102992,-0.0129134 -0.0185,-0.0235984 -0.0246339,-0.024626 0.00721654,-0.00685039 0.0154291,-0.010252 0.0246339,-0.0102047 0.00938583,-0.00015748 0.0175984,0.00324409 0.024626,0.0102047z"/>
    <path id="_374611392" fill="white" d="M0.157906 0.749602c0,0.00353937 -0.00287008,0.00641339 -0.00641339,0.00641339 -0.00353937,0 -0.00641339,-0.00287402 -0.00641339,-0.00641339 0,-0.00354331 0.00287402,-0.00641339 0.00641339,-0.00641339 0.00354331,0 0.00641339,0.00287008 0.00641339,0.00641339z"/>
   </g>
   <g>
    <path id="_374610816" fill="#B2B2B2" d="M0.286327 0.749598c0,0.0192362 -0.0155984,0.0348346 -0.0348307,0.0348346 -0.0192362,0 -0.0348346,-0.0155984 -0.0348346,-0.0348346 0,-0.0192323 0.0155984,-0.0348307 0.0348346,-0.0348307 0.0192323,0 0.0348307,0.0155984 0.0348307,0.0348307z"/>
    <path id="_374609616" fill="#8C8C8C" d="M0.276122 0.724972c-0.00894488,0.0037126 -0.0165039,0.0123425 -0.024626,0.024626 -0.0102992,-0.0129134 -0.0185,-0.0235984 -0.0246339,-0.024626 0.00721654,-0.00685039 0.0154291,-0.010252 0.0246339,-0.0102047 0.00938583,-0.00015748 0.0175984,0.00324409 0.024626,0.0102047z"/>
    <path id="_374609328" fill="white" d="M0.257906 0.749602c0,0.00353937 -0.00287008,0.00641339 -0.00641339,0.00641339 -0.00353937,0 -0.00641339,-0.00287402 -0.00641339,-0.00641339 0,-0.00354331 0.00287402,-0.00641339 0.00641339,-0.00641339 0.00354331,0 0.00641339,0.00287008 0.00641339,0.00641339z"/>
   </g>
   <g>
    <path id="_374608032" fill="#B2B2B2" d="M0.986327 0.749598c0,0.0192362 -0.0155984,0.0348346 -0.0348307,0.0348346 -0.0192362,0 -0.0348346,-0.0155984 -0.0348346,-0.0348346 0,-0.0192323 0.0155984,-0.0348307 0.0348346,-0.0348307 0.0192323,0 0.0348307,0.0155984 0.0348307,0.0348307z"/>
    <path id="_374607792" fill="#8C8C8C" d="M0.976122 0.724972c-0.00894488,0.0037126 -0.0165039,0.0123425 -0.024626,0.024626 -0.0102992,-0.0129134 -0.0185,-0.0235984 -0.0246339,-0.024626 0.00721654,-0.00685039 0.0154291,-0.010252 0.0246339,-0.0102047 0.00938583,-0.00015748 0.0175984,0.00324409 0.024626,0.0102047z"/>
    <path id="_374606544" fill="white" d="M0.957906 0.749602c0,0.00353937 -0.00287008,0.00641339 -0.00641339,0.00641339 -0.00353937,0 -0.00641339,-0.00287402 -0.00641339,-0.00641339 0,-0.00354331 0.00287402,-0.00641339 0.00641339,-0.00641339 0.00354331,0 0.00641339,0.00287008 0.00641339,0.00641339z"/>
   </g>
   <g>
    <path id="_374605440" fill="#B2B2B2" d="M1.18633 0.749598c0,0.0192362 -0.0155984,0.0348346 -0.0348307,0.0348346 -0.0192362,0 -0.0348346,-0.0155984 -0.0348346,-0.0348346 0,-0.0192323 0.0155984,-0.0348307 0.0348346,-0.0348307 0.0192323,0 0.0348307,0.0155984 0.0348307,0.0348307z"/>
    <path id="_374605008" fill="#8C8C8C" d="M1.17612 0.724972c-0.00894488,0.0037126 -0.0165039,0.0123425 -0.024626,0.024626 -0.0102992,-0.0129134 -0.0185,-0.0235984 -0.0246339,-0.024626 0.00721654,-0.00685039 0.0154291,-0.010252 0.0246339,-0.0102047 0.00938583,-0.00015748 0.0175984,0.00324409 0.024626,0.0102047z"/>
    <path id="_374603952" fill="white" d="M1.15791 0.749602c0,0.00353937 -0.00287008,0.00641339 -0.00641339,0.00641339 -0.00353937,0 -0.00641339,-0.00287402 -0.00641339,-0.00641339 0,-0.00354331 0.00287402,-0.00641339 0.00641339,-0.00641339 0.00354331,0 0.00641339,0.00287008 0.00641339,0.00641339z"/>
   </g>
   <g>
    <path id="_374603424" fill="#B2B2B2" d="M1.28633 0.749598c0,0.0192362 -0.0155984,0.0348346 -0.0348307,0.0348346 -0.0192362,0 -0.0348346,-0.0155984 -0.0348346,-0.0348346 0,-0.0192323 0.0155984,-0.0348307 0.0348346,-0.0348307 0.0192323,0 0.0348307,0.0155984 0.0348307,0.0348307z"/>
    <path id="_374602272" fill="#8C8C8C" d="M1.27612 0.724972c-0.00894488,0.0037126 -0.0165039,0.0123425 -0.024626,0.024626 -0.0102992,-0.0129134 -0.0185,-0.0235984 -0.0246339,-0.024626 0.00721654,-0.00685039 0.0154291,-0.010252 0.0246339,-0.0102047 0.00938583,-0.00015748 0.0175984,0.00324409 0.024626,0.0102047z"/>
    <path id="_374601984" fill="white" d="M1.25791 0.749602c0,0.00353937 -0.00287008,0.00641339 -0.00641339,0.00641339 -0.00353937,0 -0.00641339,-0.00287402 -0.00641339,-0.00641339 0,-0.00354331 0.00287402,-0.00641339 0.00641339,-0.00641339 0.00354331,0 0.00641339,0.00287008 0.00641339,0.00641339z"/>
   </g>
   <g>
    <path id="_374600736" fill="#B2B2B2" d="M1.08633 0.0495984c0,0.0192362 -0.0155984,0.0348346 -0.0348307,0.0348346 -0.0192362,0 -0.0348346,-0.0155984 -0.0348346,-0.0348346 0,-0.0192323 0.0155984,-0.0348307 0.0348346,-0.0348307 0.0192323,0 0.0348307,0.0155984 0.0348307,0.0348307z"/>
    <path id="_374600496" fill="#8C8C8C" d="M1.07612 0.0249724c-0.00894488,0.0037126 -0.0165039,0.0123425 -0.024626,0.024626 -0.0102992,-0.0129134 -0.0185,-0.0235984 -0.0246339,-0.024626 0.00721654,-0.00685039 0.0154291,-0.010252 0.0246339,-0.0102047 0.00938583,-0.00015748 0.0175984,0.00324409 0.024626,0.0102047z"/>
    <path id="_374599296" fill="white" d="M1.05791 0.0496024c0,0.00353937 -0.00287008,0.00641339 -0.00641339,0.00641339 -0.00353937,0 -0.00641339,-0.00287402 -0.00641339,-0.00641339 0,-0.00354331 0.00287402,-0.00641339 0.00641339,-0.00641339 0.00354331,0 0.00641339,0.00287008 0.00641339,0.00641339z"/>
   </g>
   <g>
    <path id="_374598192" fill="#B2B2B2" d="M0.886327 0.0495984c0,0.0192362 -0.0155984,0.0348346 -0.0348307,0.0348346 -0.0192362,0 -0.0348346,-0.0155984 -0.0348346,-0.0348346 0,-0.0192323 0.0155984,-0.0348307 0.0348346,-0.0348307 0.0192323,0 0.0348307,0.0155984 0.0348307,0.0348307z"/>
    <path id="_374597760" fill="#8C8C8C" d="M0.876122 0.0249724c-0.00894488,0.0037126 -0.0165039,0.0123425 -0.024626,0.024626 -0.0102992,-0.0129134 -0.0185,-0.0235984 -0.0246339,-0.024626 0.00721654,-0.00685039 0.0154291,-0.010252 0.0246339,-0.0102047 0.00938583,-0.00015748 0.0175984,0.00324409 0.024626,0.0102047z"/>
    <path id="_374596704" fill="white" d="M0.857906 0.0496024c0,0.00353937 -0.00287008,0.00641339 -0.00641339,0.00641339 -0.00353937,0 -0.00641339,-0.00287402 -0.00641339,-0.00641339 0,-0.00354331 0.00287402,-0.00641339 0.00641339,-0.00641339 0.00354331,0 0.00641339,0.00287008 0.00641339,0.00641339z"/>
   </g>
   <g>
    <path id="_374596128" fill="#B2B2B2" d="M0.786327 0.0495984c0,0.0192362 -0.0155984,0.0348346 -0.0348307,0.0348346 -0.0192362,0 -0.0348346,-0.0155984 -0.0348346,-0.0348346 0,-0.0192323 0.0155984,-0.0348307 0.0348346,-0.0348307 0.0192323,0 0.0348307,0.0155984 0.0348307,0.0348307z"/>
    <path id="_374594928" fill="#8C8C8C" d="M0.776122 0.0249724c-0.00894488,0.0037126 -0.0165039,0.0123425 -0.024626,0.024626 -0.0102992,-0.0129134 -0.0185,-0.0235984 -0.0246339,-0.024626 0.00721654,-0.00685039 0.0154291,-0.010252 0.0246339,-0.0102047 0.00938583,-0.00015748 0.0175984,0.00324409 0.024626,0.0102047z"/>
    <path id="_374594640" fill="white" d="M0.757906 0.0496024c0,0.00353937 -0.00287008,0.00641339 -0.00641339,0.00641339 -0.00353937,0 -0.00641339,-0.00287402 -0.00641339,-0.00641339 0,-0.00354331 0.00287402,-0.00641339 0.00641339,-0.00641339 0.00354331,0 0.00641339,0.00287008 0.00641339,0.00641339z"/>
   </g>
   <g>
    <path id="_374593344" fill="#B2B2B2" d="M0.686327 0.0495984c0,0.0192362 -0.0155984,0.0348346 -0.0348307,0.0348346 -0.0192362,0 -0.0348346,-0.0155984 -0.0348346,-0.0348346 0,-0.0192323 0.0155984,-0.0348307 0.0348346,-0.0348307 0.0192323,0 0.0348307,0.0155984 0.0348307,0.0348307z"/>
    <path id="_374593104" fill="#8C8C8C" d="M0.676122 0.0249724c-0.00894488,0.0037126 -0.0165039,0.0123425 -0.024626,0.024626 -0.0102992,-0.0129134 -0.0185,-0.0235984 -0.0246339,-0.024626 0.00721654,-0.00685039 0.0154291,-0.010252 0.0246339,-0.0102047 0.00938583,-0.00015748 0.0175984,0.00324409 0.024626,0.0102047z"/>
    <path id="_374591856" fill="white" d="M0.657906 0.0496024c0,0.00353937 -0.00287008,0.00641339 -0.00641339,0.00641339 -0.00353937,0 -0.00641339,-0.00287402 -0.00641339,-0.00641339 0,-0.00354331 0.00287402,-0.00641339 0.00641339,-0.00641339 0.00354331,0 0.00641339,0.00287008 0.00641339,0.00641339z"/>
   </g>
   <g>
    <path id="_374590752" fill="#B2B2B2" d="M0.586327 0.0495984c0,0.0192362 -0.0155984,0.0348346 -0.0348307,0.0348346 -0.0192362,0 -0.0348346,-0.0155984 -0.0348346,-0.0348346 0,-0.0192323 0.0155984,-0.0348307 0.0348346,-0.0348307 0.0192323,0 0.0348307,0.0155984 0.0348307,0.0348307z"/>
    <path id="_374590320" fill="#8C8C8C" d="M0.576122 0.0249724c-0.00894488,0.0037126 -0.0165039,0.0123425 -0.024626,0.024626 -0.0102992,-0.0129134 -0.0185,-0.0235984 -0.0246339,-0.024626 0.00721654,-0.00685039 0.0154291,-0.010252 0.0246339,-0.0102047 0.00938583,-0.00015748 0.0175984,0.00324409 0.024626,0.0102047z"/>
    <path id="_374589264" fill="white" d="M0.557906 0.0496024c0,0.00353937 -0.00287008,0.00641339 -0.00641339,0.00641339 -0.00353937,0 -0.00641339,-0.00287402 -0.00641339,-0.00641339 0,-0.00354331 0.00287402,-0.00641339 0.00641339,-0.00641339 0.00354331,0 0.00641339,0.00287008 0.00641339,0.00641339z"/>
   </g>
   <g>
    <path id="_374588736" fill="#B2B2B2" d="M0.486327 0.0495984c0,0.0192362 -0.0155984,0.0348346 -0.0348307,0.0348346 -0.0192362,0 -0.0348346,-0.0155984 -0.0348346,-0.0348346 0,-0.0192323 0.0155984,-0.0348307 0.0348346,-0.0348307 0.0192323,0 0.0348307,0.0155984 0.0348307,0.0348307z"/>
    <path id="_374587584" fill="#8C8C8C" d="M0.476122 0.0249724c-0.00894488,0.0037126 -0.0165039,0.0123425 -0.024626,0.024626 -0.0102992,-0.0129134 -0.0185,-0.0235984 -0.0246339,-0.024626 0.00721654,-0.00685039 0.0154291,-0.010252 0.0246339,-0.0102047 0.00938583,-0.00015748 0.0175984,0.00324409 0.024626,0.0102047z"/>
    <path id="_374587296" fill="white" d="M0.457906 0.0496024c0,0.00353937 -0.00287008,0.00641339 -0.00641339,0.00641339 -0.00353937,0 -0.00641339,-0.00287402 -0.00641339,-0.00641339 0,-0.00354331 0.00287402,-0.00641339 0.00641339,-0.00641339 0.00354331,0 0.00641339,0.00287008 0.00641339,0.00641339z"/>
   </g>
   <g>
    <path id="_374586048" fill="#B2B2B2" d="M0.386327 0.0495984c0,0.0192362 -0.0155984,0.0348346 -0.0348307,0.0348346 -0.0192362,0 -0.0348346,-0.0155984 -0.0348346,-0.0348346 0,-0.0192323 0.0155984,-0.0348307 0.0348346,-0.0348307 0.0192323,0 0.0348307,0.0155984 0.0348307,0.0348307z"/>
    <path id="_374585808" fill="#8C8C8C" d="M0.376122 0.0249724c-0.00894488,0.0037126 -0.0165039,0.0123425 -0.024626,0.024626 -0.0102992,-0.0129134 -0.0185,-0.0235984 -0.0246339,-0.024626 0.00721654,-0.00685039 0.0154291,-0.010252 0.0246339,-0.0102047 0.00938583,-0.00015748 0.0175984,0.00324409 0.024626,0.0102047z"/>
    <path id="_374584608" fill="white" d="M0.357906 0.0496024c0,0.00353937 -0.00287008,0.00641339 -0.00641339,0.00641339 -0.00353937,0 -0.00641339,-0.00287402 -0.00641339,-0.00641339 0,-0.00354331 0.00287402,-0.00641339 0.00641339,-0.00641339 0.00354331,0 0.00641339,0.00287008 0.00641339,0.00641339z"/>
   </g>
   <g>
    <path id="_374583504" fill="#B2B2B2" d="M0.186327 0.0495984c0,0.0192362 -0.0155984,0.0348346 -0.0348307,0.0348346 -0.0192362,0 -0.0348346,-0.0155984 -0.0348346,-0.0348346 0,-0.0192323 0.0155984,-0.0348307 0.0348346,-0.0348307 0.0192323,0 0.0348307,0.0155984 0.0348307,0.0348307z"/>
    <path id="_374583072" fill="#8C8C8C" d="M0.176122 0.0249724c-0.00894488,0.0037126 -0.0165039,0.0123425 -0.024626,0.024626 -0.0102992,-0.0129134 -0.0185,-0.0235984 -0.0246339,-0.024626 0.00721654,-0.00685039 0.0154291,-0.010252 0.0246339,-0.0102047 0.00938583,-0.00015748 0.0175984,0.00324409 0.024626,0.0102047z"/>
    <path id="_374582856" fill="white" d="M0.157906 0.0496024c0,0.00353937 -0.00287008,0.00641339 -0.00641339,0.00641339 -0.00353937,0 -0.00641339,-0.00287402 -0.00641339,-0.00641339 0,-0.00354331 0.00287402,-0.00641339 0.00641339,-0.00641339 0.00354331,0 0.00641339,0.00287008 0.00641339,0.00641339z"/>
   </g>
   <g>
    <path id="_374584296" fill="#B2B2B2" d="M0.286327 0.0495984c0,0.0192362 -0.0155984,0.0348346 -0.0348307,0.0348346 -0.0192362,0 -0.0348346,-0.0155984 -0.0348346,-0.0348346 0,-0.0192323 0.0155984,-0.0348307 0.0348346,-0.0348307 0.0192323,0 0.0348307,0.0155984 0.0348307,0.0348307z"/>
    <path id="_374585040" fill="#8C8C8C" d="M0.276122 0.0249724c-0.00894488,0.0037126 -0.0165039,0.0123425 -0.024626,0.024626 -0.0102992,-0.0129134 -0.0185,-0.0235984 -0.0246339,-0.024626 0.00721654,-0.00685039 0.0154291,-0.010252 0.0246339,-0.0102047 0.00938583,-0.00015748 0.0175984,0.00324409 0.024626,0.0102047z"/>
    <path id="_374586360" fill="white" d="M0.257906 0.0496024c0,0.00353937 -0.00287008,0.00641339 -0.00641339,0.00641339 -0.00353937,0 -0.00641339,-0.00287402 -0.00641339,-0.00641339 0,-0.00354331 0.00287402,-0.00641339 0.00641339,-0.00641339 0.00354331,0 0.00641339,0.00287008 0.00641339,0.00641339z"/>
   </g>
   <g>
    <path id="_374587824" fill="#B2B2B2" d="M0.986327 0.0495984c0,0.0192362 -0.0155984,0.0348346 -0.0348307,0.0348346 -0.0192362,0 -0.0348346,-0.0155984 -0.0348346,-0.0348346 0,-0.0192323 0.0155984,-0.0348307 0.0348346,-0.0348307 0.0192323,0 0.0348307,0.0155984 0.0348307,0.0348307z"/>
    <path id="_374588808" fill="#8C8C8C" d="M0.976122 0.0249724c-0.00894488,0.0037126 -0.0165039,0.0123425 -0.024626,0.024626 -0.0102992,-0.0129134 -0.0185,-0.0235984 -0.0246339,-0.024626 0.00721654,-0.00685039 0.0154291,-0.010252 0.0246339,-0.0102047 0.00938583,-0.00015748 0.0175984,0.00324409 0.024626,0.0102047z"/>
    <path id="_374590056" fill="white" d="M0.957906 0.0496024c0,0.00353937 -0.00287008,0.00641339 -0.00641339,0.00641339 -0.00353937,0 -0.00641339,-0.00287402 -0.00641339,-0.00641339 0,-0.00354331 0.00287402,-0.00641339 0.00641339,-0.00641339 0.00354331,0 0.00641339,0.00287008 0.00641339,0.00641339z"/>
   </g>
   <g>
    <path id="_374591544" fill="#B2B2B2" d="M1.18633 0.0495984c0,0.0192362 -0.0155984,0.0348346 -0.0348307,0.0348346 -0.0192362,0 -0.0348346,-0.0155984 -0.0348346,-0.0348346 0,-0.0192323 0.0155984,-0.0348307 0.0348346,-0.0348307 0.0192323,0 0.0348307,0.0155984 0.0348307,0.0348307z"/>
    <path id="_374592288" fill="#8C8C8C" d="M1.17612 0.0249724c-0.00894488,0.0037126 -0.0165039,0.0123425 -0.024626,0.024626 -0.0102992,-0.0129134 -0.0185,-0.0235984 -0.0246339,-0.024626 0.00721654,-0.00685039 0.0154291,-0.010252 0.0246339,-0.0102047 0.00938583,-0.00015748 0.0175984,0.00324409 0.024626,0.0102047z"/>
    <path id="_374593680" fill="white" d="M1.15791 0.0496024c0,0.00353937 -0.00287008,0.00641339 -0.00641339,0.00641339 -0.00353937,0 -0.00641339,-0.00287402 -0.00641339,-0.00641339 0,-0.00354331 0.00287402,-0.00641339 0.00641339,-0.00641339 0.00354331,0 0.00641339,0.00287008 0.00641339,0.00641339z"/>
   </g>
   <g>
    <path id="_374595168" fill="#B2B2B2" d="M1.28633 0.0495984c0,0.0192362 -0.0155984,0.0348346 -0.0348307,0.0348346 -0.0192362,0 -0.0348346,-0.0155984 -0.0348346,-0.0348346 0,-0.0192323 0.0155984,-0.0348307 0.0348346,-0.0348307 0.0192323,0 0.0348307,0.0155984 0.0348307,0.0348307z"/>
    <path id="_374596200" fill="#8C8C8C" d="M1.27612 0.0249724c-0.00894488,0.0037126 -0.0165039,0.0123425 -0.024626,0.024626 -0.0102992,-0.0129134 -0.0185,-0.0235984 -0.0246339,-0.024626 0.00721654,-0.00685039 0.0154291,-0.010252 0.0246339,-0.0102047 0.00938583,-0.00015748 0.0175984,0.00324409 0.024626,0.0102047z"/>
    <path id="_374597496" fill="white" d="M1.25791 0.0496024c0,0.00353937 -0.00287008,0.00641339 -0.00641339,0.00641339 -0.00353937,0 -0.00641339,-0.00287402 -0.00641339,-0.00641339 0,-0.00354331 0.00287402,-0.00641339 0.00641339,-0.00641339 0.00354331,0 0.00641339,0.00287008 0.00641339,0.00641339z"/>
   </g>
  </g>
  <g id="CC3000">
   <polygon id="_374653032" fill="#00A63D" points="0.920661,0.134114 0.920661,0.665949 0.278776,0.665949 0.278776,0.134114 "/>
   <polygon id="_374650056" fill="#CC9933" points="0.913406,0.141693 0.913406,0.65837 0.65152,0.65837 0.65152,0.649598 0.451496,0.649598 0.451496,0.65837 0.286035,0.65837 0.286035,0.141693 "/>
   <polygon id="_374649816" fill="#B2B2B2" points="0.90348,0.150465 0.90348,0.649598 0.295957,0.649598 0.295957,0.150465 "/>
   <path id="_374599728" fill="#CCCCCC" d="M0.90348 0.525465l0 0.124134 -0.607524 0 0 -0.378445c0.114772,0.221118 0.455539,0.0284409 0.607524,0.254311z"/>
   <path id="_374598984" fill="none" stroke="#E5E5E5" stroke-width="0.003" d="M0.421886 0.535217c0,0.0149331 -0.0121142,0.0270472 -0.0270512,0.0270472 -0.0149331,0 -0.0270472,-0.0121142 -0.0270472,-0.0270472 0,-0.014937 0.0121142,-0.0270512 0.0270472,-0.0270512 0.014937,0 0.0270512,0.0121142 0.0270512,0.0270512z"/>
   <text x="0.463669" y="0.454122" id="_374603496" fill="#E5E5E5" font-weight="normal" font-size="0.0593465" font-family="Droid Sans">CC3000MOD</text>
   <text x="0.465795" y="0.515378" id="_374605392" fill="#E5E5E5" font-weight="normal" font-size="0.0593465" font-family="Droid Sans">12480 45</text>
   <g transform="matrix(-8.01197E-014 1 -1 -8.01197E-014 0.48752 -0.536539)">
    <text x="0.742" y="0.4005" id="_374601864" fill="black" font-weight="normal" font-size="0.0555551" font-family="Droid Sans">Spark Core v1.0</text>
   </g>
   <path id="TI_x0020_LOGO" fill="#E5E5E5" d="M0.528287 0.363126c-0.00228346,-0.000681102 -0.00445276,-0.00125591 -0.00662598,-0.00182677 -0.000456693,0.000913386 -0.00137402,0.000799213 -0.00228346,0.000913386 -0.00080315,-0.00285433 -0.00148819,-0.0057126 -0.00217323,-0.00856693 0.000346457,-0.000232283 0.000685039,-0.000456693 0.0010315,-0.000688976 0.000338583,0.000574803 0.000681102,0.00114173 0.00102756,0.00171654 0.00457087,0.00297244 0.0161063,0.00902362 0.0165709,-0.00102756 -0.0026378,-0.00388583 -0.00800394,-0.00388583 -0.0122323,-0.00480315 -0.00479921,-0.00319291 -0.00582677,-0.00411024 -0.00548031,-0.0103976 0.00308268,-0.00731496 0.010622,-0.00685433 0.0171339,-0.00479528 0.000692913,-0.0010315 0.00125984,-0.0010315 0.00240157,-0.0010315 0.000570866,0.00262598 0.00125591,0.00525591 0.00194094,0.008 -0.00102756,-0.000228346 -0.00434252,-0.00297244 -0.00640157,-0.00388976 -0.00319685,-0.000338583 -0.0135906,-0.0011378 -0.00856299,0.00525984 0.00822441,0.00354331 0.019878,0.00251575 0.0165669,0.015311 -0.00354331,0.00457087 -0.00685433,0.0057126 -0.0129134,0.00582677zm-0.119516 -0.0893543c0.000224409,-0.00194488 0.000224409,-0.00674016 0.00170866,-0.00822441 0.00285433,0 0.00571654,0 0.00868504,0 -0.000570866,0.00274016 -0.0010315,0.00548425 -0.00148425,0.00822441 0,0.000114173 0,0.00034252 0,0.000574803 -0.00297244,-0.000232283 -0.00594094,-0.00046063 -0.00890945,-0.000574803zm0.0119961 0.004c0,-0.000346457 0,-0.000346457 0.0182795,-0.000228346l0 0 0 3.93701e-006 0 7.87402e-006 0 7.87402e-006 0 1.1811e-005 0 1.1811e-005 0 1.5748e-005 0 1.1811e-005 0 1.9685e-005 0 1.5748e-005 0 1.9685e-005 0 1.9685e-005 0 2.3622e-005 0 1.9685e-005 0 2.3622e-005 0 1.5748e-005 3.93701e-006 0.000188976 0 1.9685e-005 0 0.000188976 0 1.1811e-005 0 0.00019685 0 7.87402e-006 0 0.000204724 0 0 0 0.000204724 0 3.93701e-006 0 0.00019685 0 1.1811e-005 0 0.000192913 0 1.5748e-005 0 0.000185039 0 2.3622e-005 0 0.000185039 0 2.3622e-005 0 0.000177165 0 3.14961e-005 0 0.000173228 0 3.54331e-005 0 0.000165354 0 4.33071e-005 0 0.000165354 0 4.33071e-005 0 0.00015748 0 5.11811e-005 0 0.000153543 0 5.51181e-005 3.93701e-006 0.000350394 0 6.69291e-005 0 0.000137795 0 7.08661e-005 0 0.000133858 0 7.48031e-005 0 0.000334646 0 8.26772e-005 0 0.000122047 0 8.66142e-005 0 0.000114173 0 9.44882e-005 3.93701e-006 0.000314961 0 0.000106299 0 9.84252e-005 0 0.000110236 0 9.44882e-005 0 0.000114173 3.93701e-006 0.000295276 0 0.000122047 0 8.26772e-005 0 0.000125984 0 7.87402e-005 0 0.000129921 3.93701e-006 0.000208661 0 7.08661e-005 0 0.000137795 0 6.69291e-005 3.93701e-006 0.000141732 0 6.29921e-005 0 0.000145669 0 5.90551e-005 3.93701e-006 0.000153543 0 5.11811e-005 0 0.00015748 0 5.11811e-005 3.93701e-006 0.00015748 0 4.72441e-005 0 0.00015748 0 4.72441e-005 0 0.000165354 0 3.93701e-005 3.93701e-006 0.000169291 0 3.54331e-005 3.93701e-006 0.000173228 0 3.54331e-005 0 0.000173228 0 3.14961e-005 3.93701e-006 0.000177165 0 2.75591e-005 3.93701e-006 0.000181102 0 2.75591e-005 0 0.000181102 0 2.3622e-005 3.93701e-006 0.000185039 0 1.9685e-005 3.93701e-006 0.000188976 0 1.9685e-005 3.93701e-006 0.000188976 0 1.5748e-005 3.93701e-006 0.000192913 0 1.5748e-005 3.93701e-006 0.000192913 0 1.1811e-005 3.93701e-006 0.000200787 0 7.87402e-006 3.93701e-006 0.000200787 0 7.87402e-006 3.93701e-006 0.000200787 0 7.87402e-006 0 0.000200787 0 3.93701e-006 7.87402e-006 0.000204724 0 3.93701e-006 3.93701e-006 0.000204724 0 3.93701e-006 3.93701e-006 0.000204724 0 3.93701e-006 3.93701e-006 0.000204724 0 0 3.93701e-006 0.000208661 0 0 7.87402e-006 0.000208661 0 0 3.93701e-006 0.000208661 0 0 3.93701e-006 0.000208661c0.000681102,0.00354331 0.00228346,0.00593701 0.0046811,0.00857087 0.00011811,0.00627953 0.000228346,0.0125669 0.000456693,0.0188543 -0.0132559,0.00262205 -0.0263976,0.0107362 -0.0273071,0.0250236 0.000456693,0.00262598 0.000909449,0.00525197 0.00148425,0.00788583 -0.0178268,0.00593701 -0.025937,-0.0165748 -0.0319961,-0.0285709 -0.00948031,-0.00948819 -0.0116535,0.00891339 -0.0206811,-0.000110236 -0.00205512,-0.00343307 -0.00205512,-0.00343307 -0.0057126,-0.0117717 -0.00445669,-0.00514567 -0.00925591,-0.00788189 -0.010626,-0.0147402 0.00868504,-0.000114173 0.0174843,-0.000232283 0.0262795,-0.000346457 0,-0.0118819 0,-0.0236496 0,-0.0354173 0.00731496,0 0.0147402,0 0.0221732,0 0.000106299,0.0057126 0.000224409,0.0114252 0.000338583,0.017252 0.00182677,0 0.00365748,0 0.00548031,0 -0.000681102,0.00388583 -0.00137008,0.00776772 -0.00205512,0.0116535 -0.00216929,0.000114173 -0.00434252,0.000228346 -0.00651181,0.000346457 -0.000681102,0.00331102 -0.00137402,0.00674016 -0.00194094,0.0101693 0.00194094,0 0.004,0.000114173 0.00605512,0.000224409 -0.00148425,0.00788583 -0.00377165,0.0159961 -0.00377165,0.0239961 0.00148425,0.00251575 0.00285827,0.00308661 0.00560236,0.00365354 0.00514173,0.00011811 0.0103937,0.00023622 0.0156535,0.000346457 0.000570866,-0.000685039 0.000570866,-0.000685039 0.00262598,-0.0110827 -0.00262598,0 -0.00411024,-0.00011811 -0.00605906,-0.0017126 0.000917323,-0.00502756 0.00183465,-0.0100551 0.00274803,-0.0149724 0.00216929,-0.000228346 0.00434252,-0.000452756 0.00651181,-0.000566929 0.000685039,-0.00320079 0.00137008,-0.00640157 0.00216929,-0.00948425 -0.00216929,-0.000346457 -0.00422835,-0.000688976 -0.00628346,-0.000917323 0.000685039,-0.00388583 0.00148425,-0.00765354 0.0022874,-0.0114252zm0.0395354 0c0,-0.000346457 0,-0.000346457 0.0319921,-0.000346457 0,0.00011811 0,0.000346457 0,0.000574803 0.000685039,0.0023937 0.00136614,0.00479921 0.00217323,0.00720079 -0.00125984,-0.00046063 -0.00125984,-0.00046063 -0.00388976,-0.00251969 -0.00170866,-0.000224409 -0.00982283,-0.00205512 -0.0103937,0.000228346 -0.000114173,0.00994488 -0.000228346,0.0200039 -0.000228346,0.0300551 0.000338583,0.00182677 0.00114173,0.00205906 0.00262598,0.00274016 0,0.000346457 0.000114173,0.00080315 0.000228346,0.00125984 -0.00434252,-0.000114173 -0.00868504,-0.000114173 -0.0130276,-0.000114173 0,-0.00137402 0.00228346,-0.00240157 0.00297244,-0.00388583 -0.000114173,-0.0100512 -0.000228346,-0.0201102 -0.000228346,-0.0300551 -0.00388189,-0.00251575 -0.00971654,-0.000681102 -0.0131457,0.00183071 -0.000452756,-0.000114173 -0.000913386,-0.000114173 -0.00136614,-0.000114173 0.000685039,-0.00228346 0.00148425,-0.00456693 0.0022874,-0.00685433zm0.0274213 0.00948031c0.0233071,-0.000338583 0.0233071,-0.000338583 0.0233071,0 0.000688976,0.00194488 0.00137008,0.004 0.00217323,0.00605906 -0.000114173,0.000228346 -0.000228346,0.000456693 -0.000338583,0.000799213 -0.0022874,-0.00148425 -0.00423228,-0.00308268 -0.0068622,-0.0034252 -0.00251181,0 -0.00502362,0 -0.00753937,0 -0.000456693,0.000114173 -0.000913386,0.000228346 -0.00125591,0.00034252 -0.000114173,0.00274016 -0.000232283,0.00559843 -0.00034252,0.00845669 0.00354331,0 0.00971654,0.00125591 0.0114213,-0.0022874 0.000346457,-0.000114173 0.000688976,-0.000228346 0.00114961,-0.000228346 0.000114173,0 0.000228346,0 0.000452756,0 0,0.00274409 0,0.00559843 0,0.00845669 -0.000224409,0 -0.000338583,0 -0.000452756,0 -0.00148819,-0.000456693 -0.00183465,-0.00171654 -0.00343307,-0.00228346 -0.00308268,0 -0.00616535,0 -0.0091378,0.000110236 0,0.00228346 -0.00114173,0.00925591 0.00159843,0.0101693 0.00262992,0 0.00525591,0 0.008,0 0.00137008,-0.00034252 0.00274409,-0.000685039 0.00411417,-0.00102756 0.00159843,-0.00137008 0.0022874,-0.00217323 0.00422835,-0.00262598 -0.000913386,0.00216929 -0.00183071,0.00434252 -0.00262992,0.00662598 -0.00822441,0.000114173 -0.0164528,0.000224409 -0.024563,0.000456693 0,-0.00034252 0,-0.000681102 0,-0.0010315 0.000681102,-0.00034252 0.00137008,-0.000681102 0.00216929,-0.000909449 0.0017126,-0.00697244 0.000566929,-0.0165709 0.000566929,-0.0238819 -0.00034252,-0.00160236 -0.00148031,-0.00228346 -0.00273622,-0.00320079 0,-0.000228346 0,-0.000456693 0.000110236,-0.000574803zm-0.0669567 -0.00948031c0.00605512,0 0.0121102,0 0.0182795,0 0,-0.000114173 0,-0.000228346 0,-0.000228346m-0.0388465 0.0390748c0.00251181,-0.0130236 0.00502756,-0.0259331 0.00754331,-0.0388465 0.0029685,0 0.00593307,0.000114173 0.00902362,0.000228346 -0.00251575,0.0127992 -0.00502756,0.0255945 -0.00742913,0.0383937 0,0.000114173 0,0.000338583 0,0.000570866 -0.0091378,0 -0.0091378,0 -0.0091378,-0.000346457zm0.11426 -0.0293661c0.00468504,0 0.00937402,0 0.0140551,0 0,0.000232283 0,0.000574803 0,0.000917323 -0.00137008,0.000346457 -0.00137008,0.000346457 -0.00205512,0.00102756 0.000456693,0.00319685 0.00285827,0.0057126 0.00456693,0.00834646 0.00240157,-0.00114567 0.00742913,-0.00777559 0.00342913,-0.00971654 0,-0.000228346 0,-0.000456693 0.000114173,-0.000574803 0.00342913,0 0.0068622,0 0.0102874,0 0,0.000232283 0,0.000574803 0,0.000917323 -0.00491339,0.000913386 -0.0085748,0.00879921 -0.0110827,0.0124528 0.00217323,0.00502756 0.00662598,0.00959843 0.00982677,0.0139409 0.00388189,0 0.0111969,-0.0235354 0.0126811,-0.027311 0.00216929,-0.000114173 0.00433858,-0.000114173 0.00651181,-0.000114173 0.00046063,0.000232283 0.00046063,0.000232283 0.0105118,0.026626 0.0010315,0.00102756 0.0010315,0.00102756 0.00285827,0.00205512 -0.000114173,0.000350394 -0.000114173,0.000688976 -0.000114173,0.0010315 -0.00422835,0 -0.00834252,0 -0.0124528,0.000114173 0,-0.000456693 0,-0.000913386 0.000114173,-0.00125984 0.00342126,-0.00102756 0.00125591,-0.0046811 0.000224409,-0.00696457 -0.00399606,0 -0.00799606,0 -0.012,0.000110236 -0.000791339,0.00239764 -0.00170866,0.00354331 -0.00136614,0.00617323 0.000574803,0.000224409 0.00114173,0.000452756 0.00171654,0.000681102 0,0.000346457 0.000110236,0.00080315 0.000224409,0.00125984 -0.00685433,0 -0.0137165,0 -0.0205669,0 0.00034252,-0.00125984 0.00114173,-0.00148819 0.00240157,-0.00205512 0,-0.00240157 -0.00388583,-0.00902756 -0.00594094,-0.0097126 -0.00194488,0.00308268 -0.008,0.00833858 -0.00331496,0.010622 -0.000114173,0.000350394 -0.000114173,0.000688976 -0.000114173,0.0010315 -0.00377165,0 -0.0074252,0 -0.0110827,0 0,-0.00034252 0,-0.000681102 0.000114173,-0.000917323 0.00525591,-0.00170866 0.00879528,-0.00879528 0.0117677,-0.0130197 0,-0.00388976 -0.00708661,-0.0134882 -0.011315,-0.0147441 0,-0.00034252 0,-0.000685039 0,-0.000917323zm0.0394252 0.0179449c-0.000917323,-0.000913386 0.00331102,-0.0106299 0.00388583,-0.0121142 0.00125591,0 0.00433465,0.0101693 0.00490945,0.0117717 -0.00297244,0.000114173 -0.00593701,0.000228346 -0.00879528,0.00034252zm0.0317638 0.0123386c-0.00183071,-0.000685039 -0.00548819,-0.00285827 -0.00685433,-0.00080315 -0.00046063,-0.000114173 -0.000913386,-0.000114173 -0.00125591,-0.000114173 -0.00080315,-0.0029685 -0.00160236,-0.00593701 -0.0022874,-0.00879528 0.00194094,0 0.00514173,0.0034252 0.00674016,0.00457087 0.00308661,0.000685039 0.00537402,0.00125591 0.00857087,0.00102756 0.00914173,-0.00651575 -0.00274409,-0.00902756 -0.00857087,-0.0101693 -0.00970866,-0.00479921 -0.00708661,-0.0147362 0.00297244,-0.0166811 0.00377165,0.000228346 0.00731102,0.0017126 0.0107362,0.000566929 0.00057874,0.00251575 0.00125984,0.00514567 0.00194882,0.00777165 -0.00172047,0 -0.00491732,-0.00296457 -0.00662992,-0.00388189 -0.00400394,-0.000913386 -0.0123425,-0.000570866 -0.00879528,0.00525591 0.00673622,0.00320079 0.0155354,0.00159843 0.0175945,0.0101732 0,0.00913386 -0.0062874,0.0107362 -0.0141693,0.0110787zm-0.116209 0.00594094c0,-0.000338583 0,-0.000338583 0.0133701,0 -0.000114173,0.000228346 -0.000114173,0.000574803 -0.000114173,0.000913386 -0.00171654,0.000799213 -0.00171654,0.00114173 -0.00274016,0.00274409 0,0.0105118 0,0.0210236 0,0.0315394 0.000338583,0.00148425 0.00148425,0.00239764 0.00308268,0.00274016 -0.000114173,0.000338583 -0.000228346,0.000685039 -0.000228346,0.00114173 -0.00446063,-0.000110236 -0.00891339,-0.000228346 -0.0133701,-0.000228346 0,-0.00034252 0,-0.000685039 0,-0.000913386 0.00148819,-0.000228346 0.00274409,-0.00148819 0.00331496,-0.00274016 0,-0.0105157 0,-0.0210276 0,-0.0315394 -0.00080315,-0.0017126 -0.00159843,-0.00194488 -0.00331496,-0.00274409 0,-0.000338583 0,-0.000685039 0,-0.000913386zm0.266693 0.00914173c0,-0.00034252 0.0235394,-0.00034252 0.0235394,0 0.0017126,0.00548425 0.00216929,0.00594094 0.0022874,0.00754331 -0.00034252,0.000114173 -0.000574803,0.000228346 -0.00080315,0.000456693 -0.0034252,-0.00388976 -0.00468504,-0.00446063 -0.00993701,-0.00411417 -0.000232283,0.0225079 -0.000232283,0.0225079 0.000114173,0.0235394 0.00148425,0.00114173 0.00148425,0.00114173 0.00285039,0.00137008 -0.000110236,0.000338583 -0.000224409,0.000685039 -0.000224409,0.00114173 -0.00422441,0 -0.00845276,0 -0.0125669,0 -0.000114173,-0.000456693 -0.000114173,-0.00080315 -0.000114173,-0.00114173 0.00125591,-0.000228346 0.00125591,-0.000228346 0.00285039,-0.00137008 0,-0.00788583 0,-0.0157717 0,-0.0236535 -0.00525197,0 -0.00616535,0 -0.00948031,0.00411417 -0.00034252,0 -0.000685039,0 -0.000909449,0.000114173 0.00182677,-0.00742913 0.00182677,-0.00742913 0.0023937,-0.008zm-0.0122205 0c0,-0.00034252 0,-0.00034252 0.00913386,0 0,0.000228346 0,0.000570866 0.000114173,0.000913386 -0.00170472,0.000799213 -0.00193701,0.00160236 -0.00262598,0.00342913 -0.000114173,0.00857087 -0.000114173,0.0172559 -0.000114173,0.025937 -0.000456693,-0.000228346 -0.000913386,-0.00034252 -0.00137008,-0.000452756 -0.00651181,-0.0073189 -0.0129094,-0.0146299 -0.019311,-0.0218268 -0.000224409,0.0175945 -0.000224409,0.0175945 0.000114173,0.0190787 0.000799213,0.000574803 0.0017126,0.00114567 0.00262598,0.00183071 0,0.00034252 0,0.000685039 0,0.00102756 -0.00331102,0 -0.00662205,0 -0.00994094,0 -0.000114173,-0.00034252 -0.000114173,-0.000685039 -0.000114173,-0.00102756 0.00148819,-0.000799213 0.00262992,-0.00160236 0.0029685,-0.00320079 0,-0.00719685 0,-0.0142795 0,-0.0213661 -0.000681102,-0.00182677 -0.00136614,-0.00262992 -0.0029685,-0.00342913 0,-0.00034252 0,-0.000685039 0.000114173,-0.000913386 0,-0.00034252 0.00880315,-0.00034252 0.00880315,0 0.00490945,0.00548425 0.00982283,0.0110866 0.0147362,0.0166811 0.00011811,-0.0046811 0.000917323,-0.0102835 -0.000224409,-0.0148504 -0.000688976,-0.00034252 -0.00125591,-0.000574803 -0.00183071,-0.000799213 -0.000110236,-0.000346457 -0.000110236,-0.000688976 -0.000110236,-0.0010315zm-0.0899331 0c0.010748,-0.00034252 0.010748,-0.00034252 0.010748,0 0.00811024,0.0182795 0.00811024,0.0182795 0.0086811,0.0186299 0.00262598,-0.00617323 0.00525197,-0.0123465 0.00799606,-0.0184016 0,-0.000228346 0,-0.000456693 0,-0.000570866 0.0109724,0.00034252 0.0109724,0.00034252 0.0108583,0.000570866 -0.000917323,0.00160236 -0.00217323,0.00148425 -0.00285827,0.00354331 0,0.00731496 0,0.0147402 0,0.0221654 0.000456693,0.00182677 0.00114173,0.00251575 0.00285827,0.00285827 -0.000114173,0.000338583 -0.000114173,0.000685039 -0.000114173,0.00114173 -0.00411811,-0.000110236 -0.00822835,-0.000228346 -0.0122283,-0.000228346 0,-0.00034252 0,-0.000685039 0,-0.000913386 0.000681102,-0.000456693 0.00148425,-0.000913386 0.0022874,-0.00137008 0.000114173,-0.000685039 0.000228346,-0.00137008 0.00034252,-0.00194488 -0.000114173,-0.00605906 -0.000114173,-0.0121102 -0.000114173,-0.0180512 -0.0034252,0.00753937 -0.00685827,0.0151969 -0.0101693,0.0228504 -0.00034252,0 -0.000688976,0 -0.000917323,0 -0.0034252,-0.00754331 -0.00685039,-0.0150827 -0.0102835,-0.0225079 -0.000114173,0.00594094 -0.000228346,0.0118819 -0.00034252,0.017937 0.000228346,0.00183071 0.000799213,0.00217323 0.0022874,0.00308661 0,0.000338583 0,0.000685039 0.000110236,0.00114173 -0.00308268,0 -0.00616929,0 -0.00914173,0 -0.000110236,-0.000456693 -0.000110236,-0.00080315 -0.000110236,-0.00114173 0.00148425,-0.000570866 0.00216929,-0.00148819 0.00285827,-0.00285827 0,-0.0074252 0,-0.0148504 0,-0.0221654 -0.000464567,-0.00194094 -0.00217717,-0.00205906 -0.00274803,-0.00377165zm-0.0117677 0c0,-0.00034252 0.00994094,-0.00034252 0.00994094,0 -0.00034252,0.0010315 -0.000909449,0.00114567 -0.00182677,0.00159843 -0.00205512,0.00640157 -0.00102756,0.0148583 -0.00125591,0.0215984 -0.00377165,0.00948425 -0.0197717,0.00959449 -0.0247992,0.00148425 -0.000338583,-0.00125591 -0.000685039,-0.00239764 -0.000913386,-0.00353937 -0.000110236,-0.00583071 -0.000224409,-0.0116575 -0.000224409,-0.0174843 -0.000570866,-0.00160236 -0.0010315,-0.00194488 -0.00262992,-0.00274409 0,-0.00034252 0,-0.000685039 0,-0.000913386 0,-0.00034252 0.0122244,-0.00034252 0.0122244,0 -0.00034252,0.00114567 -0.00205512,0.00216929 -0.00274016,0.00365748 -0.000114173,0.0057126 -0.000114173,0.0114252 -0.000114173,0.0171378 0.0017126,0.00788583 0.0134843,0.008 0.0152008,0 0,-0.00559843 0,-0.0111969 0,-0.0167913 -0.000692913,-0.00183465 -0.00103543,-0.00194882 -0.00274803,-0.00309055 -0.000114173,-0.00034252 -0.000114173,-0.000685039 -0.000114173,-0.000913386zm-0.0517598 0c0,-0.00034252 0.0171417,-0.00034252 0.0171417,0 0.00685039,0.000685039 0.0119961,0.00400394 0.00948031,0.0117677 -0.0022874,0.00251575 -0.0022874,0.00251575 -0.00377165,0.00342913 -0.00228346,0.000570866 -0.00228346,0.000570866 -0.00274016,0.00114567 0.00114173,0.000799213 0.00240157,0.00159449 0.00365748,0.00239764 0.00274016,0.00422835 0.00422835,0.00777165 0.00879528,0.00994094 -0.000114173,0.000228346 -0.000114173,0.000570866 -0.000114173,0.000913386 -0.00959843,0.00240157 -0.0121102,-0.00285433 -0.0163346,-0.0108543 -0.0022874,-0.00114173 -0.00400394,-0.000913386 -0.00662598,-0.00102756 0,0.00250787 0,0.00514173 0,0.00776772 0.000338583,0.00182677 0.000791339,0.00285827 0.00285039,0.00331496 -0.000114173,0.000338583 -0.000228346,0.000685039 -0.000228346,0.00114173 -0.00411417,0 -0.00811024,0 -0.0121102,0 -0.000114173,-0.000456693 -0.000228346,-0.00080315 -0.000228346,-0.00114173 0.000228346,0 0.000570866,0 0.000913386,0 0.000570866,-0.000913386 0.00125591,-0.00183071 0.00193701,-0.00274016 0,-0.0074252 0,-0.0148543 0,-0.0222835 -0.000452756,-0.00183071 -0.00101969,-0.00171654 -0.00250787,-0.00274016 -0.000114173,-0.000346457 -0.000114173,-0.000688976 -0.000114173,-0.0010315zm-0.0636457 0c0,-0.00034252 0,-0.00034252 0.00914173,0 0,0.000228346 0,0.000570866 0.000114173,0.000913386 -0.00171654,0.000685039 -0.00193701,0.00137402 -0.00262992,0.00309055 -0.000114173,0.00867717 -0.000114173,0.0174764 -0.000114173,0.0262756 -0.000452756,-0.000228346 -0.000917323,-0.00034252 -0.00137008,-0.000452756 -0.00651181,-0.0073189 -0.0129134,-0.0146299 -0.019311,-0.0218268 -0.000228346,0.0175945 -0.000228346,0.0175945 0.000110236,0.0190787 0.00080315,0.000574803 0.00172047,0.00114567 0.00262992,0.00183071 0,0.00034252 0,0.000685039 0,0.00102756 -0.00331102,0 -0.00662598,0 -0.00993701,0 -0.000114173,-0.00034252 -0.000114173,-0.000685039 -0.000114173,-0.00102756 0.00125591,-0.000799213 0.00205512,-0.00137008 0.00285433,-0.00262992 0,-0.00753937 0,-0.0150787 0,-0.0225079 -0.000799213,-0.00125591 -0.00148425,-0.00217323 -0.00285433,-0.00285827 0,-0.00034252 0,-0.000685039 0.000114173,-0.000913386 0,-0.00034252 0.00879528,-0.00034252 0.00879528,0 0.00491339,0.00548425 0.00982677,0.0109724 0.0148543,0.0165669 0,-0.00433858 0.00011811,-0.0086811 0.000228346,-0.0129094 -0.000228346,-0.000685039 -0.000452756,-0.00125591 -0.000570866,-0.00182677 -0.000681102,-0.00034252 -0.00125197,-0.000574803 -0.00182677,-0.000799213 -0.000114173,-0.000346457 -0.000114173,-0.000688976 -0.000114173,-0.0010315zm0.16774 0.000228346c-0.00011811,-0.000228346 -0.00011811,-0.000228346 0.0234213,-0.000228346 0.00217323,0.00594094 0.00217323,0.00594094 0.0022874,0.00708268 -0.00137008,-0.000452756 -0.00251575,-0.00159843 -0.00594094,-0.00331102 -0.00331496,0 -0.00662598,0 -0.00983071,0.000114173 -0.000456693,0.000799213 -0.000456693,0.000799213 -0.000566929,0.00834252 0.00274409,0 0.00548031,0 0.00833858,0.000114173 0.00080315,-0.000228346 0.00160236,-0.000456693 0.00240157,-0.000688976 0.00034252,-0.00114567 0.000685039,-0.00137008 0.00182677,-0.00159449 0.00034252,0 0.00034252,0.00845276 0,0.00845276 -0.00159843,0 -0.00136614,-0.00137008 -0.00240157,-0.00205512 -0.00148031,-0.000346457 -0.00148031,-0.000346457 -0.0101654,-0.00046063 0,0.00320079 0.000110236,0.00651181 0.000228346,0.00982677 0.00377165,0.00125591 0.00925197,0.000346457 0.0131417,-0.00034252 0.00125591,-0.00102756 0.00251181,-0.00205512 0.00388189,-0.00308661 0.000228346,0.000114173 0.00046063,0.000232283 0.000685039,0.00046063 -0.000913386,0.00228346 -0.00182677,0.00457087 -0.00274016,0.00685433 -0.00811417,0 -0.0162283,0.00011811 -0.0243425,0.000228346 -0.000110236,-0.000456693 -0.000224409,-0.00080315 -0.000224409,-0.00114173 0.00102756,-0.000228346 0.00102756,-0.000228346 0.00251575,-0.00171654 0,-0.0074252 0.00159843,-0.0181693 -0.000346457,-0.025248 -0.00102362,-0.00034252 -0.00182677,-0.000574803 -0.00216929,-0.00160236zm-0.122378 0.0257087c0,-0.00708268 0,-0.0141693 0,-0.0211378 -0.000114173,-0.000338583 -0.000232283,-0.000688976 -0.00034252,-0.000913386 -0.00560236,0 -0.00582677,-0.000228346 -0.00948425,0.00388583 -0.00034252,0 -0.000685039,0.000114173 -0.00102756,0.000228346 0.000799213,-0.00274409 0.00159843,-0.00537402 0.00240157,-0.008 0.00788189,0 0.0157638,0 0.0236496,0 0.00205512,0.00662992 0.00251575,0.00708268 0.00239764,0.00777165 -0.000228346,0.000114173 -0.000452756,0.000228346 -0.000685039,0.000456693 -0.00331496,-0.00388583 -0.00502756,-0.00445669 -0.0101654,-0.00445669 -0.000114173,0.00731496 -0.000232283,0.0147402 -0.000232283,0.0221654 0.000346457,0.00194488 0.00125984,0.00251575 0.00320079,0.00285827 -0.000114173,0.000338583 -0.000228346,0.000685039 -0.000228346,0.00114173 -0.00422835,0 -0.00845276,0 -0.0125669,0 -0.00011811,-0.00034252 -0.00011811,-0.000685039 -0.00011811,-0.00102756 0.00171654,-0.000799213 0.00240157,-0.00125591 0.00320079,-0.00297244zm0.22224 0.00457087c-0.00673228,-0.00182677 -0.00673228,-0.00182677 -0.00719685,-0.00159843 -0.000110236,0.00034252 -0.000228346,0.000685039 -0.000228346,0.00102756 -0.000566929,0 -0.00114173,0 -0.0017126,0 -0.00228346,-0.00833858 -0.00228346,-0.00833858 -0.00205512,-0.00914173 0.000114173,-0.000110236 0.000338583,-0.000224409 0.000570866,-0.000224409 0.00433858,0.00399606 0.0140512,0.0102835 0.0179409,0.00239764 0,-0.0104016 -0.0230827,-0.00262992 -0.0170276,-0.0188583 0.00434252,-0.00548425 0.0101654,-0.00536614 0.0164528,-0.00296457 0.000685039,-0.00046063 0.000685039,-0.00046063 0.00080315,-0.00137402 0.000456693,0.000114173 0.00102756,0.000228346 0.00159843,0.000456693 0.000570866,0.00239764 0.00125591,0.00479921 0.00194094,0.00720079 -0.000224409,0.000228346 -0.000456693,0.000456693 -0.000570866,0.000799213 -0.00365748,-0.00320079 -0.0125669,-0.00811417 -0.0156575,-0.00183071 0.00011811,0.00080315 0.000232283,0.00160236 0.000350394,0.00240157 0.00959449,0.00525591 0.0178228,0.00114567 0.0178228,0.0143976 -0.00251575,0.00628346 -0.00697244,0.00662992 -0.0130315,0.00731102zm-0.194469 -0.0165669c0,-0.00274016 0,-0.00548031 0,-0.00822441 0.000452756,-0.00514567 0.0166772,-0.00080315 0.00879528,0.00707874 -0.00274409,0.00102756 -0.0057126,0.00102756 -0.00879528,0.00114567z"/>
  </g>
  <g id="USB_x0020_MICRO">
   <rect id="_374093448" fill="#999999" x="1.34572" y="0.401968" width="0.0351729" height="0.0781568"/>
   <path id="_374092512" fill="#CBA580" d="M1.37477 0.418846l0 0.0463661c0,0.00104724 -0.000716535,0.00191732 -0.0015748,0.00191732l-0.0197953 -3.93701e-006c-0.000870079,0 -0.00158268,-0.000870079 -0.00158268,-0.00191732l0 -0.0496063c0,-0.00102362 0.000728346,-0.00192126 0.00158268,-0.00192126l0.00453543 7.87402e-006c0.000468504,0 0.000838583,-0.000452756 0.000838583,-0.000996063l0 -0.00234646c0,-0.000275591 0.000177165,-0.000401575 0.000370079,-0.000401575 0.000192913,0 0.000358268,0.000177165 0.000358268,0.000401575l0 0.00234646c0,0.00106299 -0.000744094,0.00192913 -0.00159843,0.00192913l-0.00449213 3.93701e-006c-0.000468504,0 -0.000870079,0.000452756 -0.000870079,0.00100394l0 0.0495787c0,0.00057874 0.000358268,0.00100394 0.000870079,0.00100394l0.0198268 3.93701e-006c0.000452756,0 0.000854331,-0.000452756 0.000854331,-0.00100394l0 -0.0463661c0,-0.00061811 -0.000370079,-0.00104724 -0.000854331,-0.00104724l-0.018185 0c-0.000468504,0 -0.000854331,0.000429134 -0.000854331,0.00104724l0 0.0432244c0,0.000562992 0.000370079,0.00100394 0.000854331,0.00100394l0.0163504 -3.93701e-006c0.000452756,0 0.000870079,-0.000440945 0.000870079,-0.00100394l0 -0.0401102c0,-0.00061811 -0.000208661,-0.000952756 -0.000291339,-0.000996063l-0.0151772 7.87402e-006c-0.000472441,0 -0.000838583,0.000440945 -0.000838583,0.000996063l0 0.0369331c0,0.00057874 0.000358268,0.0010315 0.000838583,0.0010315l0.012878 0c0.000472441,0 0.000854331,-0.000452756 0.000854331,-0.0010315l0 -0.0340276c0,-0.000562992 -0.000358268,-0.00101969 -0.000854331,-0.00101969l-0.0112362 0c-0.000456693,0 -0.000858268,0.000452756 -0.000858268,0.00101969l0 0.0313228c0,0.000535433 0.000370079,0.00100394 0.000858268,0.00100394l0.0109882 0c0.000208661,0 0.000370079,0.000208661 0.000370079,0.000429134 0,0.000275591 -0.000192913,0.000440945 -0.000370079,0.000440945l-0.0109882 0c-0.000870079,0 -0.0015748,-0.000870079 -0.0015748,-0.00190157l0 -0.031311c0,-0.00106299 0.000716535,-0.00190157 0.0015748,-0.00190157l0.0112362 0c0.000870079,0 0.00158661,0.000838583 0.00158661,0.00190157l0 0.0340118c0,0.00106299 -0.000704724,0.00192913 -0.00158661,0.00192913l-0.012878 3.93701e-006c-0.000870079,0 -0.00158661,-0.000870079 -0.00158661,-0.00192913l0 -0.0369331c0,-0.0010315 0.000704724,-0.00188583 0.00158661,-0.00188583l0.0152087 -3.93701e-006c0.000562992,0 0.000996063,0.000826772 0.000996063,0.00188583l0 0.0401063c0,0.00104724 -0.000720472,0.00190157 -0.0015748,0.00190157l-0.0163661 0c-0.000870079,0 -0.00158268,-0.000870079 -0.00158268,-0.00190157l0 -0.0432323c0,-0.00106299 0.000716535,-0.00194488 0.00158268,-0.00194488l0.0181693 0c0.00084252,3.93701e-005 0.0015315,0.000905512 0.0015315,0.00198425z"/>
   <polygon id="_374091960" fill="white" fill-opacity="0.200000" points="1.34624,0.401972 1.34572,0.401972 1.34572,0.48013 1.34624,0.48013 "/>
   <path id="_374091024" fill="gainsboro" d="M1.34689 0.471705l-0.00117323 0 0 0.00840945 0.0351732 0 0 -0.0083937c-0.00298819,-0.000594488 -0.00659055,-0.00132283 -0.00990945,-0.00132283 -0.00390945,-3.93701e-006 -0.0206969,0.000503937 -0.0240906,0.00130709z"/>
   <path id="_374090472" fill="gainsboro" d="M1.37098 0.411717c0.00332283,0 0.0068937,-0.000728346 0.00990945,-0.00134646l0 -0.00840945 -0.0351693 0 0 0.00843307 0.00117323 0c0.0033937,0.000799213 0.0201732,0.00132283 0.0240866,0.00132283z"/>
   <polygon id="_374089536" fill="white" fill-opacity="0.501961" points="1.34624,0.471736 1.34572,0.471736 1.34572,0.48013 1.34624,0.48013 "/>
   <polygon id="_374088984" fill="white" fill-opacity="0.501961" points="1.34624,0.401984 1.34572,0.401984 1.34572,0.410409 1.34624,0.410409 "/>
   <line id="_374088120" fill="none" x1="1.38082" y1="0.472642" x2="1.38082" y2= "0.472642" />
   <rect id="_374089416" fill="#666666" x="1.21977" y="0.443028" width="0.0170393" height="0.0136471"/>
   <rect id="_374090448" fill="#999999" x="1.21975" y="0.455435" width="0.0151217" height="0.00124017"/>
   <rect id="_374091120" fill="#666666" x="1.21977" y="0.417589" width="0.0170393" height="0.0136471"/>
   <rect id="_374092584" fill="#999999" x="1.21975" y="0.430001" width="0.0151217" height="0.00124017"/>
   <rect id="_374093880" fill="#666666" x="1.21977" y="0.392207" width="0.0170393" height="0.0136471"/>
   <rect id="_374094864" fill="#999999" x="1.21975" y="0.40463" width="0.0151217" height="0.00122454"/>
   <rect id="_374095488" fill="#666666" x="1.21977" y="0.366783" width="0.0170393" height="0.0136471"/>
   <rect id="_374096952" fill="#999999" x="1.21975" y="0.379216" width="0.0151217" height="0.00121412"/>
   <rect id="_374098248" fill="#666666" x="1.21977" y="0.341402" width="0.0170393" height="0.0136367"/>
   <rect id="_374099184" fill="#999999" x="1.21975" y="0.353824" width="0.0151217" height="0.00121412"/>
   <polygon id="_374099856" fill="#B3B3B3" points="1.46741,0.268902 1.46741,0.528701 1.23289,0.528701 1.23289,0.268886 "/>
   <rect id="_374101320" fill="#CCCCCC" x="1.23289" y="0.268867" width="0.00179251" height="0.259826"/>
   <rect id="_374102616" fill="#333333" x="1.23289" y="0.328083" width="0.215284" height="0.141869"/>
   <polygon id="_374103648" fill="#B3B3B3" points="1.4623,0.531894 1.46888,0.531894 1.4838,0.540705 1.4838,0.545724 "/>
   <polygon id="_374104320" fill="#CCCCCC" points="1.46888,0.531894 1.46888,0.531886 1.47631,0.531894 1.4838,0.540705 "/>
   <polygon id="_374105784" fill="#B3B3B3" points="1.4838,0.252315 1.4838,0.257335 1.46888,0.266138 1.4623,0.266138 "/>
   <polygon id="_374107080" fill="#CCCCCC" points="1.4838,0.257335 1.47631,0.266138 1.46888,0.266154 1.46888,0.266138 "/>
   <rect id="_374108112" fill="#F2F2F2" x="1.45334" y="0.338187" width="0.00893652" height="0.00659166"/>
   <rect id="_374108784" fill="#F2F2F2" x="1.45334" y="0.36695" width="0.00893652" height="0.00660208"/>
   <rect id="_374110152" fill="#F2F2F2" x="1.45334" y="0.395709" width="0.00893652" height="0.00657603"/>
   <rect id="_374111448" fill="#F2F2F2" x="1.45334" y="0.424472" width="0.00893652" height="0.00657603"/>
   <rect id="_374112432" fill="#F2F2F2" x="1.45334" y="0.453215" width="0.00893652" height="0.00657603"/>
   <rect id="_374113056" fill="gray" x="1.45334" y="0.458467" width="0.00893652" height="0.00132354"/>
   <rect id="_374114520" fill="gray" x="1.45334" y="0.429704" width="0.00893652" height="0.00133918"/>
   <rect id="_374115816" fill="gray" x="1.45334" y="0.400935" width="0.00893652" height="0.0013496"/>
   <rect id="_374116848" fill="gray" x="1.45334" y="0.372187" width="0.00893652" height="0.0013496"/>
   <rect id="_374117520" fill="gray" x="1.45334" y="0.343413" width="0.00893652" height="0.0013496"/>
   <path id="_374118984" fill="#4D4D4D" d="M1.46483 0.466866l0 -0.00710236 -0.00546063 0 0 -0.00657874 0.00546063 0 0 -0.0221693 -0.00546063 3.93701e-006 0 -0.0065748 0.00546063 0 0 -0.0221732 -0.00546063 0 0 -0.0065748 0.00546063 0 0 -0.0221575 -0.00546063 0 0 -0.00660236 0.00546063 0 0 -0.0221575 -0.00546063 0 0 -0.00659055 0.00546063 3.93701e-006 0 -0.00445276 0 -0.00373622c0,-0.0010748 -0.000870079,-0.00200394 -0.00201181,-0.00200394l-0.0146693 0c-0.00110236,0 -0.00201181,0.000870079 -0.00201181,0.00200394l0 0.137925c0,0.00107087 0.000870079,0.00200787 0.00201181,0.00200787l0.0146693 0c0.00106299,0 0.00201181,-0.000877953 0.00201181,-0.00200787l0 -0.00106299z"/>
   <path id="_374120280" fill="#CCCCCC" d="M1.24071 0.531894l-0.00781496 -0.00315748 0 -0.034937c0,0 0.00154331,0.031748 0.00388583,0.032878 0.00234646,0.00113386 0.00392913,-0.0015 0.00392913,-0.0015l0 0.00671654z"/>
   <path id="_373590240" fill="#CCCCCC" d="M1.24071 0.266138l-0.00780315 0.00315748 0 0.0349409c0,0 0.00155512,-0.0317402 0.00390157,-0.0328701 0.00234646,-0.00112992 0.00390157,0.00148819 0.00390157,0.00148819l0 -0.00671654z"/>
   <path id="_373589352" fill="#E6E6E6" d="M1.23289 0.312866l0.0225394 0 0 0.0221142 -0.0225394 0 0 0.00635433 0.0077874 0 0 0.115299 -0.0077874 0 0 0.0072126 0.0225551 0 0 0.0221299 -0.0225551 -3.93701e-006 0 0.0458386 0.234492 7.87402e-006 0 -0.265705 -0.234492 0 0 0.046752zm0.191047 0.151031l0.0112087 0 0 0.0219764 -0.0121457 3.93701e-006c-0.00380315,0.00588976 -0.0104803,0.00975984 -0.0180197,0.00975984 -0.00824409,0 -0.0152362,-0.0030315 -0.018874,-0.00975984l0 0 -0.061752 0 0 -0.0219646 0.0617795 0c0.00364173,-0.00670079 0.0106535,-0.0113583 0.0188976,-0.0113583 0.00823622,-1.5748e-005 0.0152795,0.00461811 0.0189055,0.0113425zm0 -0.15011l0.0112087 0 0 0.0219488 -0.0121457 3.93701e-006c-0.00380315,0.00588976 -0.0104803,0.00974803 -0.0180197,0.00974803 -0.00824409,0 -0.0152362,-0.00298819 -0.018874,-0.00974803l0 0 -0.061752 0 0 -0.0219488 0.0617795 -3.93701e-006c0.00364173,-0.00675197 0.0106535,-0.0113858 0.0188976,-0.0113858 0.00823622,0 0.0152795,0.00461811 0.0189055,0.0113858z"/>
   <polygon id="_373588752" fill="#F2F2F2" points="1.46741,0.526287 1.46741,0.531894 1.24071,0.531894 1.24071,0.510776 "/>
   <polygon id="_373587864" fill="#999999" points="1.46741,0.266138 1.31603,0.274004 1.24071,0.281803 1.24071,0.266138 "/>
   <rect id="_373587264" fill="#CCCCCC" x="1.32436" y="0.463897" width="0.00180815" height="0.0219635"/>
   <rect id="_373586376" fill="#CCCCCC" x="1.32436" y="0.313774" width="0.00180815" height="0.0219375"/>
   <rect id="_373585824" fill="#B3B3B3" x="1.45551" y="0.279138" width="0.00909805" height="0.239712"/>
   <rect id="_373584984" fill="#CCCCCC" x="1.46309" y="0.279138" width="0.00431454" height="0.239712"/>
  </g>
  <g id="SPARK_x0020_LOGO">
   <polygon id="_373583712" fill="#CC9933" points="1.32142,0.779051 1.35054,0.760461 1.37924,0.778094 1.36134,0.750075 1.37938,0.721228 1.35109,0.739409 1.32265,0.721504 1.34056,0.749799 "/>
   <polygon id="_373585056" fill="#CC9933" points="1.33222,0.754449 1.33509,0.749937 1.33222,0.745425 1.31076,0.749937 "/>
   <polygon id="_373586208" fill="#CC9933" points="1.35067,0.733807 1.34685,0.731346 1.35054,0.710157 1.35559,0.731209 1.3515,0.733669 "/>
   <polygon id="_373587480" fill="#CC9933" points="1.34603,0.768528 1.35067,0.76552 1.35573,0.768665 1.35067,0.789579 "/>
   <polygon id="_373588776" fill="#CC9933" points="1.36995,0.75472 1.39114,0.749937 1.36968,0.745287 1.36694,0.749937 "/>
   <polygon id="_373589424" fill="#E6AB00" points="1.32142,0.779051 1.35054,0.760461 1.37924,0.778094 1.37924,0.778094 1.35054,0.759252 "/>
   <polygon id="_373590576" fill="#E6AB00" points="1.33222,0.754449 1.33509,0.749937 1.33172,0.753209 1.31076,0.749937 "/>
   <polygon id="_78806264" fill="#E6AB00" points="1.34685,0.731346 1.35102,0.732846 1.35559,0.731209 1.35095,0.733992 "/>
   <polygon id="_78806096" fill="#E6AB00" points="1.34603,0.768528 1.35067,0.786524 1.35573,0.768665 1.35067,0.789579 "/>
   <polygon id="_78806168" fill="#E6AB00" points="1.36995,0.75472 1.39114,0.749937 1.37018,0.753571 1.36694,0.749937 "/>
   <polygon id="_78806072" fill="#E6AB00" points="1.36134,0.750075 1.37938,0.721228 1.35982,0.750075 "/>
   <polygon id="_78805952" fill="#E6AB00" points="1.34213,0.749819 1.32265,0.721504 1.34056,0.749799 "/>
  </g>
  <g id="BLUE_x0020_LED">
   <rect id="_78805784" fill="#CCCCCC" transform="matrix(-8.33407E-014 1.0402 -1.0402 -8.33407E-014 1.38125 0.606374)" width="0.060815" height="0.0336496"/>
   <rect id="_78805712" fill="#E5E5E5" transform="matrix(-5.14419E-014 0.642063 -0.853031 -6.83446E-014 1.3781 0.61848)" width="0.060815" height="0.0336496"/>
   <rect id="_78805640" fill="#1B5BB3" transform="matrix(-1.97951E-014 0.247069 -0.328251 -2.62994E-014 1.36927 0.630491)" width="0.060815" height="0.0336496"/>
  </g>
  <g id="BUTTON">
   <rect id="_78805520" fill="#CCCCCC" transform="matrix(-2.9663E-014 0.370234 -1.0402 -8.33407E-014 1.06979 0.557626)" width="0.060815" height="0.0336496"/>
   <rect id="_78805376" fill="#E5E5E5" transform="matrix(-2.99276E-015 0.0373535 -1.0402 -8.33407E-014 1.06979 0.57787)" width="0.060815" height="0.0336496"/>
   <rect id="_78805352" fill="#CCCCCC" transform="matrix(-2.9663E-014 0.370234 -1.0402 -8.33407E-014 1.06979 0.618685)" width="0.060815" height="0.0336496"/>
   <rect id="_78805280" fill="#E5E5E5" transform="matrix(-2.99276E-015 0.0373535 -1.0402 -8.33407E-014 1.06979 0.638929)" width="0.060815" height="0.0336496"/>
   <rect id="_78805208" fill="#CCCCCC" transform="matrix(-2.9663E-014 0.370234 -1.0402 -8.33407E-014 1.19602 0.618882)" width="0.060815" height="0.0336496"/>
   <rect id="_78805184" fill="#E5E5E5" transform="matrix(-2.99276E-015 0.0373535 -1.0402 -8.33407E-014 1.19602 0.639126)" width="0.060815" height="0.0336496"/>
   <rect id="_78805064" fill="#CCCCCC" transform="matrix(-2.9663E-014 0.370234 -1.0402 -8.33407E-014 1.19602 0.557626)" width="0.060815" height="0.0336496"/>
   <rect id="_78804992" fill="#E5E5E5" transform="matrix(-2.99276E-015 0.0373535 -1.0402 -8.33407E-014 1.19602 0.57787)" width="0.060815" height="0.0336496"/>
   <polygon id="_78804920" fill="#999999" points="1.18633,0.541055 1.18633,0.659012 1.04548,0.659012 1.04548,0.541055 "/>
   <polygon id="_78804872" fill="#B2B2B2" points="1.18633,0.65613 1.18633,0.659012 1.04548,0.659012 1.04548,0.65613 "/>
   <polygon id="_363421016" fill="#8C8C8C" points="1.18633,0.541055 1.18633,0.543937 1.04548,0.543937 1.04548,0.541055 "/>
   <path id="_363426584" fill="black" d="M1.15049 0.600035c0,0.0190945 -0.0154882,0.0345827 -0.0345827,0.0345827 -0.0190945,0 -0.0345827,-0.0154882 -0.0345827,-0.0345827 0,-0.0190945 0.0154882,-0.0345827 0.0345827,-0.0345827 0.0190945,0 0.0345827,0.0154882 0.0345827,0.0345827z"/>
   <g>
    <path id="_363439112" fill="#404040" d="M1.14711 0.598185c0,0.0173543 -0.0140748,0.0314291 -0.0314291,0.0314291 -0.0173543,0 -0.0314291,-0.0140748 -0.0314291,-0.0314291 0,-0.0173543 0.0140748,-0.0314291 0.0314291,-0.0314291 0.0173543,0 0.0314291,0.0140748 0.0314291,0.0314291z"/>
    <path id="_363430760" fill="#999999" d="M1.14711 0.598185c0,0.0173543 -0.0140748,0.0314291 -0.0314291,0.0314291 -0.0173543,0 -0.0314291,-0.0140748 -0.0314291,-0.0314291 0.00600787,0.0404291 0.0579646,0.0405906 0.0628583,0z"/>
   </g>
  </g>
  <g id="BUTTON_0">
   <rect id="_363444080" fill="#CCCCCC" transform="matrix(-2.9663E-014 0.370234 -1.0402 -8.33407E-014 1.06979 0.157626)" width="0.060815" height="0.0336496"/>
   <rect id="_363423224" fill="#E5E5E5" transform="matrix(-2.99276E-015 0.0373535 -1.0402 -8.33407E-014 1.06979 0.17787)" width="0.060815" height="0.0336496"/>
   <rect id="_363432152" fill="#CCCCCC" transform="matrix(-2.9663E-014 0.370234 -1.0402 -8.33407E-014 1.06979 0.218685)" width="0.060815" height="0.0336496"/>
   <rect id="_363422000" fill="#E5E5E5" transform="matrix(-2.99276E-015 0.0373535 -1.0402 -8.33407E-014 1.06979 0.238929)" width="0.060815" height="0.0336496"/>
   <rect id="_363440336" fill="#CCCCCC" transform="matrix(-2.9663E-014 0.370234 -1.0402 -8.33407E-014 1.19602 0.218882)" width="0.060815" height="0.0336496"/>
   <rect id="_274729472" fill="#E5E5E5" transform="matrix(-2.99276E-015 0.0373535 -1.0402 -8.33407E-014 1.19602 0.239126)" width="0.060815" height="0.0336496"/>
   <rect id="_274714640" fill="#CCCCCC" transform="matrix(-2.9663E-014 0.370234 -1.0402 -8.33407E-014 1.19602 0.157626)" width="0.060815" height="0.0336496"/>
   <rect id="_274706096" fill="#E5E5E5" transform="matrix(-2.99276E-015 0.0373535 -1.0402 -8.33407E-014 1.19602 0.17787)" width="0.060815" height="0.0336496"/>
   <polygon id="_274721024" fill="#999999" points="1.18633,0.141055 1.18633,0.259012 1.04548,0.259012 1.04548,0.141055 "/>
   <polygon id="_274729136" fill="#B2B2B2" points="1.18633,0.25613 1.18633,0.259012 1.04548,0.259012 1.04548,0.25613 "/>
   <polygon id="_274711424" fill="#8C8C8C" points="1.18633,0.141055 1.18633,0.143937 1.04548,0.143937 1.04548,0.141055 "/>
   <path id="_274709504" fill="black" d="M1.15049 0.200035c0,0.0190945 -0.0154882,0.0345827 -0.0345827,0.0345827 -0.0190945,0 -0.0345827,-0.0154882 -0.0345827,-0.0345827 0,-0.0190945 0.0154882,-0.0345827 0.0345827,-0.0345827 0.0190945,0 0.0345827,0.0154882 0.0345827,0.0345827z"/>
   <g>
    <path id="_274733960" fill="#404040" d="M1.14711 0.198185c0,0.0173543 -0.0140748,0.0314291 -0.0314291,0.0314291 -0.0173543,0 -0.0314291,-0.0140748 -0.0314291,-0.0314291 0,-0.0173543 0.0140748,-0.0314291 0.0314291,-0.0314291 0.0173543,0 0.0314291,0.0140748 0.0314291,0.0314291z"/>
    <path id="_274730912" fill="#999999" d="M1.14711 0.198185c0,0.0173543 -0.0140748,0.0314291 -0.0314291,0.0314291 -0.0173543,0 -0.0314291,-0.0140748 -0.0314291,-0.0314291 0.00600787,0.0404291 0.0579646,0.0405906 0.0628583,0z"/>
   </g>
  </g>
  <g id="TEXT">
   <g transform="matrix(-8.01197E-014 1 -1 -8.01197E-014 1.39197 -0.604571)">
    <text x="0.742" y="0.4005" id="_374606976" fill="black" font-weight="normal" font-size="0.0440709" font-family="Droid Sans">MODE</text>
   </g>
   <g transform="matrix(-8.01197E-014 1 -1 -8.01197E-014 1.3907 -0.17915)">
    <text x="0.742" y="0.4005" id="_374609208" fill="black" font-weight="normal" font-size="0.0440709" font-family="Droid Sans">RST</text>
   </g>
   <text x="1.2126" y="0.708059" id="_374610888" fill="black" font-weight="normal" font-size="0.0486102" font-family="Droid Sans">3V3</text>
   <text x="1.11218" y="0.708059" id="_374612832" fill="black" font-weight="normal" font-size="0.0486102" font-family="Droid Sans">RST</text>
   <text x="1.009" y="0.703626" id="_374614416" fill="black" font-weight="normal" font-size="0.0419961" font-family="Droid Sans">3V3*</text>
   <text x="0.895004" y="0.708059" id="_374119848" fill="black" font-weight="normal" font-size="0.0486102" font-family="Droid Sans">GND</text>
   <text x="0.821724" y="0.708047" id="_374118432" fill="black" font-weight="normal" font-size="0.0486102" font-family="Droid Sans">D7</text>
   <text x="0.721638" y="0.708071" id="_374117064" fill="black" font-weight="normal" font-size="0.0486102" font-family="Droid Sans">D6</text>
   <text x="0.622102" y="0.707567" id="_374115936" fill="black" font-weight="normal" font-size="0.0486102" font-family="Droid Sans">D5</text>
   <text x="0.52037" y="0.708236" id="_374114472" fill="black" font-weight="normal" font-size="0.0486102" font-family="Droid Sans">D4</text>
   <text x="0.422299" y="0.708071" id="_374113776" fill="black" font-weight="normal" font-size="0.0486102" font-family="Droid Sans">D3</text>
   <text x="0.322252" y="0.708543" id="_374112456" fill="black" font-weight="normal" font-size="0.0486102" font-family="Droid Sans">D2</text>
   <text x="0.229299" y="0.708047" id="_374111088" fill="black" font-weight="normal" font-size="0.0486102" font-family="Droid Sans">D1</text>
   <text x="0.121685" y="0.708118" id="_374109768" fill="black" font-weight="normal" font-size="0.0486102" font-family="Droid Sans">D0</text>
   <text x="0.12228" y="0.128031" id="_374108688" fill="black" font-weight="normal" font-size="0.0486102" font-family="Droid Sans">A0</text>
   <text x="0.22228" y="0.128031" id="_374107224" fill="black" font-weight="normal" font-size="0.0486102" font-family="Droid Sans">A1</text>
   <text x="0.32228" y="0.128031" id="_374106528" fill="black" font-weight="normal" font-size="0.0486102" font-family="Droid Sans">A2</text>
   <text x="0.42228" y="0.128031" id="_374105160" fill="black" font-weight="normal" font-size="0.0486102" font-family="Droid Sans">A3</text>
   <text x="0.52228" y="0.128031" id="_374103744" fill="black" font-weight="normal" font-size="0.0486102" font-family="Droid Sans">A4</text>
   <text x="0.62228" y="0.128031" id="_374102376" fill="black" font-weight="normal" font-size="0.0486102" font-family="Droid Sans">A5</text>
   <text x="0.72228" y="0.128031" id="_374101248" fill="black" font-weight="normal" font-size="0.0486102" font-family="Droid Sans">A6</text>
   <text x="0.82228" y="0.128031" id="_374099784" fill="black" font-weight="normal" font-size="0.0486102" font-family="Droid Sans">A7</text>
   <text x="0.92228" y="0.128031" id="_374099088" fill="black" font-weight="normal" font-size="0.0486102" font-family="Droid Sans">TX</text>
   <text x="1.02228" y="0.128031" id="_374097768" fill="black" font-weight="normal" font-size="0.0486102" font-family="Droid Sans">RX</text>
   <text x="1.09892" y="0.12811" id="_374096400" fill="black" font-weight="normal" font-size="0.0486102" font-family="Droid Sans">GND</text>
   <text x="1.21648" y="0.127862" id="_374095080" fill="black" font-weight="normal" font-size="0.0486063" font-family="Droid Sans">VIN</text>
  </g>
 </g>
</svg>
